<?xml version="1.0" encoding="UTF-8"?>
<svg id="Layer_1" data-name="Layer 1" xmlns="http://www.w3.org/2000/svg" viewBox="0 0 767.65 248.01">
  <path d="M99.78,186.77c-3.82-17.19,4.31-31.61,6.61-46.65,3.77-24.63-.81-49.32-5.48-73.5-11.55,29.86-18.99,61.19-31.83,90.61-9.07,20.77-24.27,50.92-38.44,68.12-6.56,7.97-20.17,23.49-30.64,22.62,8.91-10.24,22.54-21.12,30.46-31.87,21.11-28.69,42.51-80.65,52.8-114.99,3.36-11.21,10.27-54.03,16.45-58.37,1.6-1.13,4-2.45,4.58.09,3.02,27.2,10.98,58.95,9.04,86.09-.53,7.42-3.48,15.6-4.21,23.01-.25,2.52-2.09,8.14,1.96,7.62,31.75-66.07,98.63-108.99,167.82-126.93-18.37,14.26-42.03,20.22-62.74,31.33-36.17,19.4-82.45,59.39-100.62,96.65-2.09,4.29-8.33,33.65-15.75,26.17Z"/>
  <path d="M630.38,106.66c-3.45-3.98-15.29,16.2-16.35,18.63-6.3,14.3-5.71,30.56-10.04,43.96-.88,2.72-2.74,3.94-5.59,3.39-1.42-17.57,8.55-33.08,6.09-51.1-1.24-9.03-8.72-8.63-10.08-16.88,12.22-.35,10.53,8.74,17,15.98,3.62-8.14,16.55-30.31,23.94-13.95,5.55,12.3-11.52,50.38-8.94,65.96,3.51,3.5,30.09-14.64,35.41-17.58,1.76-.97,5-4.42,6.57-1.43-6.06,5.09-34.48,27.35-40.17,26.11-15.9-3.47-1.73-35.2-.01-44.29.77-4.09,3.5-27.28,2.18-28.8Z"/>
  <path d="M240.88,164.98c-5.16,6.85,2.61,21.83,1.43,32.46-3.18,28.6-39.32,24.07-31.55-5.57,1.64-6.27,18.01-22,17.5-24.44-4-5.05-11.15-2.61-16.76-3.15l-7.22,8.11c-3.21-12.38,8.66-15.5,19.09-14.1,6.24.84,9.05,6.46,11.64,5.99,2.84-.52,29.3-25.67,39.26-23.86-4.92,9.89-27.87,17.25-33.39,24.57ZM223.36,207.27c1.37,1.67,2.45,3.48,3.9,5.08,10.23-10.09,12.97-26.05,4-37.92-11.6,8.91-13.97,16.1-10.95,30.55.31,1.5,2.4,1.51,3.05,2.3Z"/>
  <path d="M379.53,127.42l-15.25,3.75-23.77,2.22c-1.95,1.72-17.3,41.89-16.99,44.97,1.06,10.59,11.34,5.5,17.05,5.06,2.2-.17,7.46-1.44,6.95,1.97-47.78,18.19-22.95-30.27-11.99-51.95-10.69.49-22.33,3.84-32.91,4.07-4.15.09-10.67,1.87-9.1-4.09l44.04-4.98c5.91-12.39,17.07-24.01,19.99-37.03,3.48-.2,4.32-.91,4.07,3.06-.58,9.32-14.88,22.51-16.09,32.94h34Z"/>
  <path d="M560.78,14.96c-2.57,1.66-8.69,2.5-7.27-3.18,6.49-4.64,9.84-10.36,18.25-11.78,1.64,1.61-10.2,14.46-10.98,14.96Z"/>
  <path d="M562.61,35.48c-3.94,31.67-10.17,65.48-22.59,94.97-4.44,10.53-20.6,40.7-28.13,47.7-3.67,3.41-5.36,4.99-10.87,4.06-2.37-2.09,16.11-22.66,18.36-26.32,14.51-23.57,27.96-62.02,32.41-89.34,1.32-8.08-10.69,5.34-15.3,6.43-18.86,4.48-39.48-9.94-17.16-18.28.1,3.76-8.08,4.72-2.64,9.44,9.34,8.11,24.07,1.43,31.26-6.77,7.4-8.44,4-20.75,14.66-21.89Z"/>
  <path d="M447.71,22.2l-18.61,81.29c23.68-21.15,60.48-43.78,35.95,9.49-7.31,15.88-22.56,30.37-24.57,48.13-3-.72-8.79,2.1-7.45-4.4,2.38-11.5,22.15-35.16,27.9-48.46,5.8-13.42,11.09-28.59-9.12-16.06-4.92,3.05-19.66,16.13-22.99,20.74-10.57,14.66-7.73,28.56-11.86,43.27-1.23,4.39-2.57,6.37-7.47,5.27.24-5.46.53-10.91,1.47-16.33,4.8-27.75,14.8-63.23,22.24-91.05,1.96-7.34,5.73-23.61,8.47-29.13,1.48-2.98,3.62-6.23,6.02-2.76Z"/>
  <path d="M731.91,203.23c-8.33.84-4.14-10.42-3.14-16.05,3.39-19.03,11.42-36.4,18.77-54.01-36.23,6.66-33.58-27.88-12.27-46.99,8.34-7.48,29.65-15.42,32.09-.02,3.24,20.5-22.03,59.41-28.58,81.08-3.43,11.33-5.51,24.21-6.86,35.99ZM760.99,83.39c-1.58-.99-11.96-.6-14.34.14-3.92,1.22-3.82,5.23-5.98,7.01-5.07,4.17-8.59,3.75-12.77,12.21-11.97,24.21,13.1,34.86,22.53,22.29,1.07-1.43,12.25-31.38,12.53-33.46.4-2.97-.68-5.64-1.96-8.21Z"/>
</svg>