<?xml version="1.0" encoding="UTF-8"?>
<svg id="Layer_1" data-name="Layer 1" xmlns="http://www.w3.org/2000/svg" viewBox="0 0 576 366">
  <g id="Layer_2" data-name="Layer 2">
    <g style="isolation: isolate;">
      <g style="isolation: isolate;">
        <path d="M221.69,358.42v.63h-.54v-6.05h.54v2.95h.02c.16-.25.37-.43.62-.56.26-.12.52-.19.79-.19.29,0,.56.05.8.15.24.1.44.24.61.42.17.18.3.38.39.62.09.24.14.5.14.78s-.05.54-.14.78c-.09.24-.22.45-.39.62-.17.18-.37.31-.61.42-.24.1-.5.15-.8.15-.27,0-.54-.06-.79-.18-.26-.12-.46-.3-.62-.54h-.02ZM224.48,357.18c0-.21-.03-.4-.1-.59s-.16-.34-.28-.48c-.12-.14-.27-.24-.44-.32-.18-.08-.38-.12-.6-.12-.21,0-.4.04-.58.12-.18.08-.33.18-.46.32-.13.14-.23.3-.3.48-.07.18-.11.38-.11.6s.04.41.11.6c.07.18.17.34.3.48.13.13.28.24.46.32.18.08.37.12.58.12.22,0,.42-.04.6-.12.18-.08.32-.18.44-.32.12-.14.21-.3.28-.48.06-.18.1-.38.1-.59Z"/>
        <path d="M228.07,358.47h.02l1.16-3.16h.59l-1.86,4.71c-.11.29-.25.52-.43.69-.17.17-.42.26-.75.26-.17,0-.33-.02-.49-.05l.06-.5c.13.04.26.06.4.06.19,0,.33-.06.44-.17.11-.11.2-.28.28-.49l.3-.78-1.6-3.74h.61l1.27,3.16Z"/>
      </g>
      <g style="isolation: isolate;">
        <path d="M233.8,355.74c0-.16-.01-.3-.02-.43h.52c.01.1.02.21.02.34,0,.12,0,.22,0,.3h.02c.11-.22.27-.4.48-.53.21-.14.45-.2.72-.2.07,0,.13,0,.19,0,.06,0,.11.02.17.03l-.07.52s-.09-.02-.16-.03-.15-.02-.22-.02c-.14,0-.28.03-.42.08-.13.05-.25.14-.35.25-.1.11-.18.26-.24.44-.06.18-.09.39-.09.64v1.92h-.54v-2.92c0-.1,0-.23,0-.39Z"/>
      </g>
      <g style="isolation: isolate;">
        <path d="M240.52,357.07v.12s0,.09,0,.14h-3.1c0,.19.04.36.11.53.07.17.17.31.29.43.12.12.27.22.43.29.17.07.34.11.54.11.28,0,.53-.07.73-.2.21-.13.36-.28.47-.45l.41.32c-.22.28-.47.49-.74.61-.27.12-.56.18-.87.18-.28,0-.53-.05-.77-.15s-.44-.24-.61-.41c-.17-.18-.31-.38-.4-.62-.1-.24-.15-.5-.15-.78s.05-.54.14-.78c.1-.24.23-.45.4-.62.17-.18.37-.31.6-.41.23-.1.48-.15.74-.15.29,0,.55.05.78.15.22.1.41.23.56.4s.26.36.34.59c.08.22.12.46.12.72ZM239.97,356.89c-.02-.35-.13-.64-.34-.88-.21-.23-.51-.35-.9-.35-.18,0-.35.03-.5.1-.15.07-.29.16-.41.27-.12.11-.21.25-.28.39s-.11.3-.12.46h2.55Z"/>
        <path d="M242.81,358.42v.63h-.54v-6.05h.54v2.95h.02c.16-.25.37-.43.62-.56.26-.12.52-.19.79-.19.29,0,.56.05.8.15.24.1.44.24.61.42.17.18.3.38.39.62.09.24.14.5.14.78s-.05.54-.14.78c-.09.24-.22.45-.39.62-.17.18-.37.31-.61.42-.24.1-.5.15-.8.15-.27,0-.54-.06-.79-.18-.26-.12-.46-.3-.62-.54h-.02ZM245.6,357.18c0-.21-.03-.4-.1-.59s-.16-.34-.28-.48c-.12-.14-.27-.24-.44-.32-.18-.08-.38-.12-.6-.12-.21,0-.4.04-.58.12-.18.08-.33.18-.46.32-.13.14-.23.3-.3.48-.07.18-.11.38-.11.6s.04.41.11.6c.07.18.17.34.3.48.13.13.28.24.46.32.18.08.37.12.58.12.22,0,.42-.04.6-.12.18-.08.32-.18.44-.32.12-.14.21-.3.28-.48.06-.18.1-.38.1-.59Z"/>
        <path d="M251.31,357.07v.12s0,.09,0,.14h-3.1c0,.19.04.36.11.53.07.17.17.31.29.43.12.12.27.22.43.29.17.07.34.11.54.11.28,0,.53-.07.73-.2.21-.13.36-.28.47-.45l.41.32c-.22.28-.47.49-.74.61-.27.12-.56.18-.87.18-.28,0-.53-.05-.77-.15s-.44-.24-.61-.41c-.17-.18-.31-.38-.4-.62-.1-.24-.15-.5-.15-.78s.05-.54.14-.78c.1-.24.23-.45.4-.62.17-.18.37-.31.6-.41.23-.1.48-.15.74-.15.29,0,.55.05.78.15.22.1.41.23.56.4s.26.36.34.59c.08.22.12.46.12.72ZM250.76,356.89c-.02-.35-.13-.64-.34-.88-.21-.23-.51-.35-.9-.35-.18,0-.35.03-.5.1-.15.07-.29.16-.41.27-.12.11-.21.25-.28.39s-.11.3-.12.46h2.55Z"/>
        <path d="M255.73,356.16c-.09-.14-.22-.26-.4-.36-.17-.09-.36-.14-.56-.14-.22,0-.42.04-.59.12-.18.08-.33.18-.45.32-.13.14-.22.3-.29.48-.07.18-.1.38-.1.6s.03.41.1.59c.07.18.16.34.28.48.12.14.27.24.45.32.18.08.37.12.59.12.24,0,.44-.04.61-.14.17-.09.3-.21.41-.35l.41.3c-.16.2-.36.35-.59.47-.23.12-.51.18-.84.18-.3,0-.58-.05-.82-.15-.25-.1-.45-.24-.63-.41s-.31-.38-.4-.62c-.1-.24-.14-.5-.14-.78s.05-.54.14-.78c.1-.24.23-.45.4-.62.17-.18.38-.31.63-.41.25-.1.52-.15.82-.15.25,0,.5.05.76.16s.47.27.63.48l-.42.3Z"/>
        <path d="M260.29,356.16c-.09-.14-.22-.26-.4-.36-.17-.09-.36-.14-.56-.14-.22,0-.42.04-.59.12-.18.08-.33.18-.45.32-.13.14-.22.3-.29.48-.07.18-.1.38-.1.6s.03.41.1.59c.07.18.16.34.28.48.12.14.27.24.45.32.18.08.37.12.59.12.24,0,.44-.04.61-.14.17-.09.3-.21.41-.35l.41.3c-.16.2-.36.35-.59.47-.23.12-.51.18-.84.18-.3,0-.58-.05-.82-.15-.25-.1-.45-.24-.63-.41s-.31-.38-.4-.62c-.1-.24-.14-.5-.14-.78s.05-.54.14-.78c.1-.24.23-.45.4-.62.17-.18.38-.31.63-.41.25-.1.52-.15.82-.15.25,0,.5.05.76.16s.47.27.63.48l-.42.3Z"/>
        <path d="M264.52,356.63c0-.32-.09-.56-.26-.72-.17-.16-.42-.24-.74-.24-.22,0-.43.04-.62.12s-.35.19-.49.32l-.3-.36c.15-.16.36-.28.61-.38.25-.1.54-.15.86-.15.2,0,.39.03.57.08.18.06.33.14.46.25s.24.25.31.42.11.37.11.6v1.64c0,.14,0,.29.02.45.01.15.03.29.05.39h-.49c-.02-.09-.03-.19-.04-.3s-.02-.21-.02-.31h-.02c-.17.25-.36.43-.58.54-.22.11-.48.16-.78.16-.14,0-.29-.02-.44-.06s-.29-.11-.42-.2c-.13-.09-.23-.21-.31-.35s-.12-.32-.12-.53c0-.29.07-.52.22-.69.15-.17.34-.29.59-.38.25-.08.53-.14.84-.16.32-.02.65-.04.99-.04v-.12ZM264.36,357.18c-.22,0-.45,0-.68.03-.23.02-.43.06-.62.11-.18.06-.33.14-.45.24-.12.11-.18.25-.18.42,0,.13.03.25.08.34.05.09.12.16.2.22.09.06.18.1.28.12.1.02.21.04.32.04.19,0,.36-.03.51-.1.15-.07.27-.16.38-.27.1-.12.18-.25.23-.4s.08-.31.08-.47v-.28h-.16Z"/>
        <path d="M270.09,360.97h-.54v-5.66h.54v.65h.02c.15-.25.36-.43.62-.56.26-.12.52-.19.79-.19.29,0,.56.05.8.15.24.1.44.24.61.42.17.18.3.38.39.62.09.24.14.5.14.78s-.05.54-.14.78c-.09.24-.22.45-.39.62-.17.18-.37.31-.61.42-.24.1-.5.15-.8.15-.27,0-.53-.06-.79-.19-.26-.12-.47-.31-.62-.54h-.02v2.55ZM272.89,357.18c0-.21-.03-.4-.1-.59s-.16-.34-.28-.48c-.12-.14-.27-.24-.44-.32-.18-.08-.38-.12-.6-.12-.21,0-.4.04-.58.12-.18.08-.33.18-.46.32-.13.14-.23.3-.3.48-.07.18-.11.38-.11.6s.04.41.11.6c.07.18.17.34.3.48.13.13.28.24.46.32.18.08.37.12.58.12.22,0,.42-.04.6-.12.18-.08.32-.18.44-.32.12-.14.21-.3.28-.48.06-.18.1-.38.1-.59Z"/>
        <path d="M277.55,356.63c0-.32-.09-.56-.26-.72-.17-.16-.42-.24-.74-.24-.22,0-.43.04-.62.12s-.35.19-.49.32l-.3-.36c.15-.16.36-.28.61-.38.25-.1.54-.15.86-.15.2,0,.39.03.57.08.18.06.33.14.46.25s.24.25.31.42.11.37.11.6v1.64c0,.14,0,.29.02.45.01.15.03.29.05.39h-.49c-.02-.09-.03-.19-.04-.3s-.02-.21-.02-.31h-.02c-.17.25-.36.43-.58.54-.22.11-.48.16-.78.16-.14,0-.29-.02-.44-.06s-.29-.11-.42-.2c-.13-.09-.23-.21-.31-.35s-.12-.32-.12-.53c0-.29.07-.52.22-.69.15-.17.34-.29.59-.38.25-.08.53-.14.84-.16.32-.02.65-.04.99-.04v-.12ZM277.39,357.18c-.22,0-.45,0-.68.03-.23.02-.43.06-.62.11-.18.06-.33.14-.45.24-.12.11-.18.25-.18.42,0,.13.03.25.08.34.05.09.12.16.2.22.09.06.18.1.28.12.1.02.21.04.32.04.19,0,.36-.03.51-.1.15-.07.27-.16.38-.27.1-.12.18-.25.23-.4s.08-.31.08-.47v-.28h-.16Z"/>
        <path d="M282.38,356.63c0-.32-.09-.56-.26-.72-.17-.16-.42-.24-.74-.24-.22,0-.43.04-.62.12s-.35.19-.49.32l-.3-.36c.15-.16.36-.28.61-.38.25-.1.54-.15.86-.15.2,0,.39.03.57.08.18.06.33.14.46.25s.24.25.31.42.11.37.11.6v1.64c0,.14,0,.29.02.45.01.15.03.29.05.39h-.49c-.02-.09-.03-.19-.04-.3s-.02-.21-.02-.31h-.02c-.17.25-.36.43-.58.54-.22.11-.48.16-.78.16-.14,0-.29-.02-.44-.06s-.29-.11-.42-.2c-.13-.09-.23-.21-.31-.35s-.12-.32-.12-.53c0-.29.07-.52.22-.69.15-.17.34-.29.59-.38.25-.08.53-.14.84-.16.32-.02.65-.04.99-.04v-.12ZM282.22,357.18c-.22,0-.45,0-.68.03-.23.02-.43.06-.62.11-.18.06-.33.14-.45.24-.12.11-.18.25-.18.42,0,.13.03.25.08.34.05.09.12.16.2.22.09.06.18.1.28.12.1.02.21.04.32.04.19,0,.36-.03.51-.1.15-.07.27-.16.38-.27.1-.12.18-.25.23-.4s.08-.31.08-.47v-.28h-.16Z"/>
        <path d="M286.85,356.19c-.08-.15-.2-.28-.36-.38-.16-.1-.35-.15-.56-.15-.1,0-.19.01-.29.03-.1.02-.18.06-.26.1s-.13.11-.18.18c-.05.08-.07.16-.07.26,0,.18.07.31.22.4.14.09.37.17.68.24.44.09.77.22.98.4.21.17.32.41.32.7,0,.21-.04.39-.12.54-.08.15-.19.27-.32.36-.13.09-.28.16-.45.2s-.34.06-.51.06c-.28,0-.56-.06-.82-.18s-.49-.3-.66-.55l.43-.32c.1.17.24.3.42.42.19.11.39.17.62.17.12,0,.23-.01.34-.03.11-.02.2-.06.28-.11.08-.05.14-.12.19-.2s.07-.19.07-.31c0-.2-.09-.34-.28-.44-.19-.1-.46-.19-.82-.28-.11-.03-.23-.06-.36-.1-.12-.04-.24-.1-.35-.18-.11-.08-.19-.17-.26-.29-.07-.12-.1-.26-.1-.44,0-.19.04-.36.11-.49s.17-.25.3-.34c.12-.09.27-.15.43-.2.16-.04.33-.06.5-.06.26,0,.51.06.76.18.25.12.43.28.55.5l-.42.31Z"/>
        <path d="M291.66,356.16c-.09-.14-.22-.26-.4-.36-.17-.09-.36-.14-.56-.14-.22,0-.42.04-.59.12-.18.08-.33.18-.45.32-.12.14-.22.3-.29.48-.07.18-.1.38-.1.6s.03.41.1.59c.07.18.16.34.28.48.12.14.27.24.45.32.18.08.37.12.59.12.24,0,.44-.04.61-.14.17-.09.3-.21.41-.35l.41.3c-.16.2-.36.35-.59.47s-.51.18-.84.18c-.3,0-.58-.05-.82-.15s-.45-.24-.63-.41c-.17-.18-.31-.38-.4-.62-.1-.24-.14-.5-.14-.78s.05-.54.14-.78c.1-.24.23-.45.4-.62.17-.18.38-.31.63-.41.25-.1.52-.15.82-.15.25,0,.5.05.76.16s.47.27.63.48l-.42.3Z"/>
        <path d="M294.1,355.92c.1-.22.27-.39.5-.52.23-.13.49-.19.75-.19.47,0,.83.14,1.07.42.24.28.36.66.36,1.12v2.3h-.54v-2.07c0-.2-.02-.38-.05-.54-.03-.16-.09-.3-.16-.41-.08-.12-.18-.2-.31-.27-.13-.06-.29-.1-.49-.1-.14,0-.28.03-.42.09-.14.06-.26.15-.36.27s-.19.27-.26.46c-.06.18-.1.4-.1.65v1.92h-.54v-6.05h.54v2.92h.02Z"/>
        <path d="M299.31,358.42v.63h-.54v-6.05h.54v2.95h.02c.16-.25.37-.43.62-.56.26-.12.52-.19.79-.19.29,0,.56.05.8.15.24.1.44.24.61.42.17.18.3.38.39.62.09.24.14.5.14.78s-.05.54-.14.78c-.09.24-.22.45-.39.62-.17.18-.37.31-.61.42-.24.1-.5.15-.8.15-.27,0-.54-.06-.79-.18-.26-.12-.46-.3-.62-.54h-.02ZM302.1,357.18c0-.21-.03-.4-.1-.59-.06-.18-.16-.34-.28-.48-.12-.14-.27-.24-.44-.32-.18-.08-.38-.12-.6-.12-.21,0-.4.04-.58.12-.18.08-.33.18-.46.32-.13.14-.23.3-.3.48-.07.18-.11.38-.11.6s.04.41.11.6c.07.18.17.34.3.48.13.13.28.24.46.32.18.08.37.12.58.12.22,0,.42-.04.6-.12.18-.08.32-.18.44-.32.12-.14.21-.3.28-.48.06-.18.1-.38.1-.59Z"/>
        <path d="M307.12,359.05c-.01-.1-.02-.21-.02-.34,0-.12,0-.22,0-.3h-.02c-.11.22-.28.4-.52.53-.24.14-.49.2-.76.2-.47,0-.83-.14-1.07-.42-.24-.28-.36-.66-.36-1.12v-2.3h.54v2.07c0,.2.02.38.05.54.03.16.09.3.16.41.08.11.18.2.31.27.13.06.29.1.49.1.14,0,.28-.03.42-.09s.26-.15.36-.27c.11-.12.19-.27.26-.46.06-.18.1-.4.1-.65v-1.92h.54v2.92c0,.1,0,.23,0,.39,0,.16.01.3.02.43h-.52Z"/>
      </g>
      <g style="isolation: isolate;">
        <path d="M309.6,355.74c0-.16-.01-.3-.02-.43h.52c.01.1.02.21.02.34,0,.12,0,.22,0,.3h.02c.11-.22.27-.4.48-.53.21-.14.45-.2.72-.2.07,0,.13,0,.19,0,.06,0,.11.02.17.03l-.07.52s-.08-.02-.16-.03c-.07-.01-.15-.02-.22-.02-.14,0-.28.03-.42.08-.13.05-.25.14-.35.25-.1.11-.18.26-.24.44-.06.18-.09.39-.09.64v1.92h-.54v-2.92c0-.1,0-.23,0-.39Z"/>
      </g>
      <g style="isolation: isolate;">
        <path d="M313.1,359.8c.15.19.35.35.61.49.26.13.53.2.82.2.27,0,.49-.04.68-.12s.34-.18.45-.32c.11-.13.2-.29.25-.47.05-.18.08-.37.08-.57v-.7h-.02c-.14.24-.35.42-.61.54-.26.13-.53.19-.8.19-.29,0-.56-.05-.8-.14-.24-.1-.44-.23-.61-.4s-.3-.37-.39-.6c-.09-.24-.14-.49-.14-.76s.05-.52.14-.75c.09-.23.22-.44.39-.62.17-.18.37-.31.61-.42.24-.1.5-.15.8-.15.27,0,.54.06.8.19.26.13.47.31.62.55h.02v-.65h.54v3.71c0,.2-.03.42-.08.65s-.16.44-.31.63c-.15.19-.36.35-.62.48-.26.13-.6.19-1.02.19-.35,0-.68-.07-.99-.2-.31-.13-.58-.32-.81-.55l.39-.42ZM313.2,357.13c0,.2.03.38.1.56.06.18.16.33.28.46.12.13.27.24.44.32.18.08.38.12.6.12.21,0,.4-.04.58-.1.18-.07.33-.17.46-.3s.23-.28.3-.46.11-.38.11-.6c0-.2-.04-.38-.11-.56-.07-.18-.17-.33-.3-.46-.13-.13-.28-.24-.46-.32-.18-.08-.37-.12-.58-.12-.22,0-.42.04-.6.12-.18.08-.32.19-.44.32-.12.13-.21.29-.28.46-.06.18-.1.36-.1.56Z"/>
        <path d="M320.86,359.19l-.46-.15,2.42-5.8.46.16-2.42,5.79Z"/>
        <path d="M324.38,359.19l-.46-.15,2.42-5.8.46.16-2.42,5.79Z"/>
        <path d="M333.98,359.05h-3.62v-.6l2.32-2.34c.09-.08.17-.18.25-.28.08-.1.16-.2.22-.31.06-.11.11-.22.15-.34s.06-.24.06-.37c0-.17-.03-.31-.09-.45-.06-.13-.14-.25-.24-.34-.1-.09-.22-.17-.36-.22s-.28-.08-.43-.08c-.3,0-.56.09-.77.28s-.34.43-.4.72l-.57-.11c.04-.2.11-.38.21-.55.1-.17.23-.32.38-.44.15-.12.32-.22.52-.29.19-.07.4-.1.62-.1s.45.03.65.1.38.17.54.3.28.29.37.49.14.42.14.68c0,.18-.03.35-.08.5-.05.16-.12.3-.2.44-.08.14-.18.27-.29.4-.11.13-.23.25-.35.37l-2.04,2.02h3v.51Z"/>
        <path d="M337.47,353.24c.35,0,.65.09.88.26.24.17.43.4.57.68.14.28.25.6.31.96s.09.72.09,1.09-.03.73-.09,1.08c-.06.36-.16.67-.31.95-.14.28-.33.51-.57.68-.24.17-.53.26-.88.26s-.65-.08-.89-.26c-.24-.17-.43-.4-.57-.68s-.25-.6-.3-.95c-.06-.35-.09-.72-.09-1.08s.03-.73.09-1.09.16-.68.3-.96.33-.51.57-.68c.24-.17.53-.26.89-.26ZM337.47,353.73c-.25,0-.46.08-.63.23s-.3.35-.39.59c-.1.24-.16.51-.2.8-.04.3-.06.59-.06.87s.02.57.06.86c.04.29.1.56.2.8.1.24.23.43.39.58s.37.23.63.23.45-.08.62-.23c.17-.15.3-.35.39-.58.1-.24.17-.5.21-.8s.06-.58.06-.86-.02-.57-.06-.87-.11-.56-.21-.8c-.1-.24-.23-.44-.39-.59-.17-.15-.37-.23-.62-.23Z"/>
        <path d="M344.38,359.05h-3.62v-.6l2.32-2.34c.08-.08.17-.18.25-.28.08-.1.16-.2.22-.31.06-.11.11-.22.15-.34.04-.12.06-.24.06-.37,0-.17-.03-.31-.09-.45-.06-.13-.14-.25-.24-.34-.1-.09-.22-.17-.36-.22-.14-.05-.28-.08-.43-.08-.3,0-.56.09-.77.28s-.34.43-.4.72l-.57-.11c.04-.2.11-.38.21-.55.1-.17.23-.32.38-.44.15-.12.32-.22.52-.29.19-.07.4-.1.62-.1s.45.03.65.1.38.17.54.3.28.29.37.49c.09.19.14.42.14.68,0,.18-.03.35-.08.5-.05.16-.12.3-.2.44-.08.14-.18.27-.29.4-.11.13-.23.25-.35.37l-2.04,2.02h3v.51Z"/>
        <path d="M349.04,357.17h.83v.51h-.83v1.37h-.56v-1.37h-2.59v-.56l2.4-3.74h.75v3.78ZM348.48,354.03h-.02l-1.98,3.14h1.99v-3.14Z"/>
      </g>
    </g>
  </g>
  <g>
    <path d="M467.15,168.62c-2.81-1.13-6.26.75-8.71,2.26-7.39,4.5-12.13,15.29-18.13,21.57-1.2,1.25-4.21,3.06-4.66,3.76-.88,1.36-4.47,16.02-4.5,17.96,0,.77.15,2.07.81,2.6,3.98.77,14.45-8.08,17.68-10.8.7-.59,5.59-5.92,6.31-5.13.58.63-.23,1.16-.58,1.53-3.63,3.93-14.43,12.95-19.18,14.89-12.47,5.09-2.68-14.58-2.65-19.7-1.62.12-2.41.19-3.04-1.41-2.67,3.04-11.55,16.91-15.04,17.2-.93.08-2.56-1.9-2.49-2.92.01-.26,1.09-3.88,1.27-4.39,1.29-3.58,3.04-5.33,6.06-7.49.97-.7,2.25-1.71,3.42-1.94-3.74,4.58-11.47,8.43-8.17,15.4.61.12,3.65-3.08,4.2-3.73,10.49-12.17,14.63-24.6,23.38-36.86,1.51-2.11,7.08-9.03,9.06-10.08,1.32-.69,1.66-.23,1.36,1.13-3.02,1.02-5.91,4.77-7.82,7.36-5.25,7.08-8.76,15.21-13.15,22.82l1.86.23.71,1.87c9.48-6.22,13.53-19.48,23.25-25.31,1.9-1.14,7.84-4.15,8.72-.85h.04ZM432.13,196.17c3.15.5,1.29-3.84.35-1.75-.26.55-.4,1.14-.35,1.75Z" style="fill: #9b241f;"/>
    <path d="M432.76,218.59c-.92,0-1.66-.25-2.23-.76-2.42-2.19-.6-8.42,1.01-13.91.67-2.28,1.3-4.44,1.46-5.82-1.11.06-1.97-.03-2.61-1.04-.71.89-1.69,2.24-2.79,3.75-5.1,7.01-9.54,12.83-12.1,13.04-.62.05-1.27-.42-1.69-.84-.69-.67-1.4-1.78-1.34-2.62.02-.37,1.19-4.21,1.29-4.52,1.34-3.73,3.16-5.53,6.24-7.73l.31-.23c.96-.7,2.14-1.57,3.3-1.79l1.36-.26-.88,1.07c-.95,1.17-2.17,2.3-3.35,3.39-3.54,3.28-6.88,6.39-4.94,11.06.85-.57,2.85-2.6,3.55-3.42,6.05-7.02,10.05-14.27,13.93-21.27,2.82-5.1,5.74-10.38,9.43-15.56,1.43-2,7.09-9.1,9.23-10.23.52-.27,1.27-.58,1.79-.18.53.4.43,1.21.29,1.86l-.06.28-.27.09c-3.05,1.04-6.11,5.19-7.58,7.19-3.47,4.68-6.23,9.93-8.9,15-1.23,2.35-2.51,4.76-3.84,7.12l1.41.17.6,1.56c4.29-3,7.51-7.56,10.63-11.97,3.46-4.9,7.05-9.96,12.12-13,.55-.33,5.48-3.23,8.05-2.19.71.29,1.2.86,1.41,1.64l-.42.11-.19.5-.29-.11c-2.43-.79-5.39.72-7.99,2.32-4.45,2.71-7.98,7.83-11.38,12.78-2.22,3.22-4.31,6.26-6.65,8.71-.63.66-1.73,1.45-2.69,2.15-.77.56-1.74,1.26-1.91,1.53-.76,1.18-4.39,15.73-4.42,17.7,0,.79.17,1.72.54,2.12,2.54.33,8.26-3.25,17.03-10.63l.09-.08c.14-.12.47-.45.91-.89,2.87-2.89,4.62-4.45,5.54-4.43.28,0,.46.13.56.24.82.89-.07,1.72-.4,2.04-.07.06-.13.12-.18.18-3.52,3.81-14.36,12.97-19.36,15.01-1.43.58-2.63.87-3.61.87ZM434.01,197.02l.02.54c0,1.44-.71,3.85-1.53,6.63-1.38,4.69-3.26,11.12-1.3,12.89.84.76,2.46.66,4.79-.29,4.71-1.92,15.49-10.96,19.01-14.77.07-.07.15-.15.23-.22.34-.32.42-.45.41-.53-.88.26-3.75,3.15-4.71,4.12-.47.47-.82.82-.97.95l-.1.08c-5.93,4.99-14.24,11.55-18,10.83l-.12-.02-.1-.08c-.9-.72-1-2.33-1-2.99.03-1.92,3.59-16.7,4.58-18.23.26-.41.99-.95,2.16-1.8.93-.67,1.98-1.44,2.55-2.03,2.29-2.39,4.36-5.4,6.55-8.58,3.47-5.04,7.05-10.24,11.69-13.06,2.44-1.5,5.19-2.92,7.72-2.65-.03-.02-.06-.03-.1-.04-1.72-.69-5.44,1.08-7.16,2.12-4.89,2.93-8.41,7.91-11.81,12.72-3.3,4.67-6.72,9.49-11.42,12.58l-.52.34-.83-2.17-2.31-.29.38-.65c1.46-2.54,2.85-5.18,4.2-7.74,2.69-5.11,5.47-10.39,8.98-15.13,2.26-3.07,4.94-6.33,7.79-7.44.07-.4.03-.55.01-.6-.02.02-.22.03-.71.28-1.77.94-7.11,7.44-8.88,9.93-3.66,5.13-6.56,10.38-9.37,15.46-3.9,7.05-7.93,14.34-14.04,21.44-.03.04-3.61,4.12-4.68,3.89l-.25-.05-.11-.23c-2.63-5.57,1.41-9.33,4.98-12.64.42-.39.83-.77,1.22-1.14-.13.09-.26.19-.38.28l-.32.23c-2.92,2.08-4.63,3.78-5.88,7.25-.19.56-1.19,3.95-1.24,4.27-.02.35.39,1.17,1.05,1.82.47.46.77.54.9.55,2.32-.2,7.99-7.98,11.37-12.63,1.39-1.91,2.59-3.56,3.33-4.4l.54-.62.3.76c.49,1.25.92,1.22,2.52,1.1l.54-.04ZM415.53,211.53h0ZM432.61,196.71c-.17,0-.35-.01-.55-.05l-.39-.06-.03-.39c-.06-.64.08-1.32.39-2,.47-1.03,1.17-.88,1.38-.81.69.24,1.14,1.27.93,2.12-.08.3-.41,1.18-1.73,1.18ZM433.09,194.36s-.07.09-.15.27c-.17.38-.28.74-.31,1.08.34,0,.65-.1.74-.42.1-.4-.14-.86-.27-.93Z" style="fill: #9b241f;"/>
  </g>
  <g>
    <path d="M380.02,150.55c-3.06,1.02-6.06,2.42-8.89,3.97-9.02,4.95-25.97,16.95-29.2,26.84-.59,1.82.67,2.79-1.66,3.11l-12.1,27.26c-.34-2.85,1.02-5.45,1.97-8.06,4.21-11.63,12.28-23.3,14.62-35.35,1.04-5.32,1.64-11.25-.26-16.36-.85-.65-4.55,4.21-5.05,4.98-2.03,3.18-3.27,6.58-2.88,10.42.83.82,3.15-2.34,3.66-3.11.62-.94,2.32-5.1,2.65-5.29l1.17,1.58-.92.65c.2,1.44-4.03,6.72-5.03,7.03-1.39.42-3.41-.16-3.8-1.64-.5-1.88,4.48-11.12,6-12.96,7.36-9.02,6.97,5.48,6.53,10.27-.3,3.28-1.59,6.45-1.63,9.57,1.35-1.9,2.98-3.55,4.66-5.14,4.51-4.27,11.15-9.22,16.44-12.52,4.19-2.6,8.63-5.05,13.46-6.17l.24.93h0Z" style="fill: #9b241f;"/>
    <path d="M327.89,213.61l-.21-1.81c-.29-2.43.58-4.66,1.43-6.81.19-.49.39-.99.56-1.48,1.67-4.6,3.97-9.29,6.2-13.82,3.44-6.99,6.99-14.22,8.4-21.46.9-4.63,1.69-10.57-.12-15.77-.92.45-3.5,3.56-4.28,4.76-2.15,3.36-3.08,6.56-2.83,9.77.51-.18,1.81-1.56,2.78-3.01.26-.4.8-1.57,1.27-2.6,1.06-2.3,1.27-2.7,1.55-2.85l.38-.21,1.74,2.34-1.13.8c-.25,2-4.24,6.89-5.38,7.24-.97.29-2.18.16-3.08-.35-.7-.39-1.16-.96-1.34-1.65-.58-2.18,4.6-11.59,6.1-13.41,2.06-2.53,3.73-3.48,5.09-2.93,3.29,1.35,2.51,11.53,2.33,13.56-.14,1.52-.48,3.01-.82,4.45-.27,1.18-.53,2.31-.68,3.43,1.2-1.46,2.51-2.75,3.69-3.86,4.23-4,10.87-9.06,16.52-12.58,4.11-2.55,8.6-5.07,13.61-6.23l.47-.11.48,1.85-.44.15c-2.76.92-5.72,2.25-8.8,3.94-9.56,5.25-25.88,17.1-28.96,26.56-.18.54-.16,1.01-.15,1.42.03.98-.07,1.7-1.63,1.99l-12.73,28.68ZM344.32,151.4c.23,0,.39.08.49.16l.12.09.05.14c2.05,5.5,1.22,11.78.28,16.63-1.43,7.37-5.02,14.66-8.49,21.71-2.22,4.51-4.51,9.17-6.16,13.71-.18.5-.38,1-.57,1.5-.47,1.21-.96,2.45-1.22,3.71l11.12-25.04.28-.04c1.08-.15,1.08-.26,1.05-1.01-.01-.44-.03-1.05.2-1.76,3.18-9.73,19.74-21.8,29.44-27.13,2.97-1.63,5.84-2.92,8.52-3.86h0c-4.68,1.17-8.93,3.56-12.84,5.98-5.59,3.49-12.17,8.49-16.36,12.46-1.5,1.41-3.21,3.12-4.59,5.07l-.93,1.31.02-1.6c.02-1.77.44-3.56.84-5.29.33-1.41.66-2.87.79-4.32.53-5.67.11-11.8-1.71-12.55-.86-.36-2.26.58-3.93,2.64-1.63,1.98-6.33,10.93-5.91,12.52.14.53.55.85.87,1.03.17.09.35.17.54.23l-.11-.1-.02-.18c-.36-3.55.61-7.07,2.96-10.74.03-.05,3.52-4.98,5.11-5.25.06-.01.12-.02.17-.02ZM342.92,159.85c-.26.52-.63,1.31-.92,1.95-.53,1.16-1.04,2.26-1.35,2.73-.2.3-1.77,2.62-3.08,3.29.14-.02.27-.05.4-.08.94-.32,4.84-5.4,4.68-6.48l-.04-.3.75-.53-.43-.58Z" style="fill: #9b241f;"/>
  </g>
  <g>
    <path d="M117.57,205.5c-.78-3.54.89-6.52,1.36-9.61.78-5.08-.16-10.16-1.13-15.15-2.38,6.15-3.92,12.6-6.56,18.66-1.87,4.28-4.99,10.49-7.92,14.03-1.35,1.64-4.16,4.83-6.31,4.66,1.83-2.11,4.64-4.35,6.27-6.57,4.35-5.91,8.75-16.61,10.88-23.68.69-2.32,2.11-11.13,3.39-12.02.34-.23.82-.5.94.01.62,5.6,2.26,12.14,1.86,17.73-.11,1.53-.71,3.22-.86,4.74-.05.53-.43,1.68.4,1.58,6.54-13.61,20.31-22.46,34.57-26.14-3.78,2.93-8.66,4.16-12.92,6.45-7.44,4-16.99,12.24-20.73,19.91-.43.89-1.71,6.93-3.24,5.38v.03Z" style="fill: #9b241f;"/>
    <path d="M97.18,218.6c-.07,0-.14,0-.21,0l-.98-.08.65-.75c.79-.91,1.77-1.85,2.71-2.77,1.29-1.24,2.62-2.52,3.53-3.77,4.13-5.62,8.56-16.09,10.8-23.53.2-.66.46-1.91.77-3.34,1.03-4.8,1.83-8.26,2.82-8.94.34-.23.79-.48,1.21-.31.15.06.4.21.5.62.2,1.81.5,3.63.8,5.56.66,4.15,1.35,8.44,1.07,12.32-.06.84-.26,1.72-.45,2.57-.18.77-.34,1.49-.41,2.18,0,.09-.03.19-.05.31,6.25-12.12,18.71-21.35,34.4-25.41l2.35-.61-1.92,1.49c-2.4,1.87-5.26,3.06-8.03,4.22-1.66.7-3.37,1.42-4.97,2.27-7.17,3.85-16.8,12.06-20.52,19.69-.08.16-.22.63-.37,1.13-.75,2.44-1.45,4.49-2.56,4.76-.08.02-.18.02-.26.03v3.84l-.99-4.46c-.56-2.53.06-4.75.66-6.89.28-1,.54-1.94.69-2.9.69-4.49,0-9.06-.79-13.23-.77,2.14-1.47,4.32-2.15,6.44-1.12,3.51-2.29,7.13-3.79,10.58-.97,2.23-4.43,9.83-7.99,14.15-2.64,3.22-4.83,4.85-6.53,4.85ZM118.03,176.11s-.11.07-.19.12c-.73.51-1.82,5.6-2.4,8.33-.31,1.46-.58,2.72-.79,3.42-2.26,7.52-6.75,18.12-10.95,23.83-.97,1.32-2.33,2.63-3.65,3.9-.52.5-1.03,1-1.51,1.48,1-.52,2.44-1.67,4.4-4.08,2.76-3.35,5.86-9.38,7.84-13.91,1.48-3.4,2.64-7,3.75-10.49.86-2.69,1.75-5.47,2.79-8.15l.63-1.62.33,1.7c.91,4.69,1.94,10,1.14,15.28.19-.81.38-1.64.43-2.41.27-3.77-.4-8-1.06-12.09-.3-1.86-.58-3.61-.77-5.32ZM118.02,205.2s.05.02.07.02c.65-.16,1.55-3.11,1.85-4.08.1-.31.18-.58.25-.8l-.22.03c-.43.06-.69-.11-.83-.25-.39-.4-.27-1.05-.18-1.58.02-.11.04-.21.05-.29.02-.21.05-.43.08-.64-.12.47-.25.93-.37,1.38-.55,1.97-1.12,4-.69,6.21ZM151.36,175.14c-12.93,4.06-23.33,11.79-29.28,21.74,4.52-6.91,12.68-13.63,19.23-17.14,1.63-.88,3.37-1.61,5.05-2.31,1.74-.73,3.42-1.44,5-2.29Z" style="fill: #9b241f;"/>
  </g>
  <g>
    <path d="M208.04,211.45l2.8-4.9c.09-.31-.42-.34-.69-.23-2.56,1.08-6.35,4.19-9.1,4.91-2.01.54-3.61.71-3.98-1.64-1.82,1.21-3.46,3.47-5.84,3.26l6.54-5.36,8.17-9.59c.83-.35.85.53.62,1.09-.43,1.06-2.36,2.79-3.11,3.89-1.56,2.3-3.14,4.6-4.28,7.16,1.87,1.37,11.69-5.69,14-6.53.83,1.13-2.37,4.81-2.79,5.84-.23.57.07.88.67.67l28.28-18.19-1.43,2.07c-8.76,4.48-17.37,12.71-25.96,17-1.33.66-2.45.61-3.9.53h-.01Z" style="fill: #9b241f;"/>
    <path d="M191.54,213.37c-.12,0-.24,0-.36-.02l-1.22-.11,7.49-6.13,8.19-9.61.11-.05c.63-.26.99-.03,1.15.12.41.41.33,1.12.13,1.61-.29.72-1.1,1.61-1.89,2.48-.51.56-.99,1.09-1.27,1.51l-.1.14c-1.39,2.05-2.83,4.17-3.91,6.44,0,0,.02,0,.03,0,1.64,0,6.35-2.83,9-4.42,1.86-1.12,3.33-2,4.11-2.28l.35-.13.22.3c.74,1-.35,2.75-1.84,4.92-.4.59-.78,1.14-.89,1.4,0,.01,0,.02-.01.03,0,0,0,0,0,0l30.32-19.5-2.91,4.23-.11.06c-4.31,2.21-8.67,5.38-12.87,8.46-4.29,3.13-8.72,6.37-13.08,8.55-1.46.73-2.71.66-4.16.58l-.81-.04.39-.7,2.45-4.29c-.98.45-2.14,1.18-3.36,1.95-1.9,1.19-3.85,2.42-5.52,2.86-1.19.32-2.53.61-3.49,0-.43-.28-.73-.7-.93-1.27-.28.22-.57.47-.86.72-1.22,1.04-2.6,2.21-4.35,2.21ZM206.18,198.39l-8.04,9.43-5.06,4.15c.74-.37,1.44-.96,2.16-1.58.5-.42,1.01-.86,1.54-1.21l.65-.43.12.77c.11.69.33,1.13.67,1.36.55.36,1.47.21,2.69-.12,1.18-.31,2.59-1.1,4.02-1.98-2.96,1.6-5.09,2.41-6.07,1.68l-.33-.24.16-.37c1.14-2.54,2.71-4.86,4.23-7.09l.1-.15c.33-.48.83-1.03,1.36-1.62.69-.76,1.48-1.63,1.7-2.18.06-.16.09-.31.09-.42ZM208.88,210.99c1.03.04,1.88-.03,2.86-.51,4.29-2.14,8.69-5.36,12.94-8.46.56-.41,1.12-.82,1.68-1.22l-15.14,9.72c-.69.23-1.05-.05-1.18-.19-.12-.13-.38-.5-.12-1.15,0,0,0-.01,0-.02l-1.05,1.83ZM210.48,205.77c.23,0,.47.06.65.22.2.18.26.45.18.71l-.04.1-.9,1.58c.16-.24.34-.5.54-.8.5-.74,1.7-2.48,1.89-3.35-.7.35-1.72.95-2.88,1.64.01,0,.03-.01.04-.02.14-.05.33-.1.52-.1Z" style="fill: #9b241f;"/>
  </g>
  <g>
    <path d="M364.51,195.72c.93,2.98,2.32,5.34.83,8.54-1.05,2.25-5.71,5.87-8.19,6.3-10.29,1.75-4.6-10.64.38-14.1,2.83-1.97,5.84-1.66,9.05-2.63,3.38-1.02,6.48-2.53,9.75-3.8.46-.18,1.43-.75,1.72-.15-3.8,2.95-8.93,4.64-13.54,5.84h0ZM352.91,208.72c3.96,2.54,12.16-3.03,12.05-7.12-.08-2.99-1.58-6.26-4.99-5.06-4.77,1.66-7.57,7.3-7.07,12.18h.01Z" style="fill: #9b241f;"/>
    <path d="M355.35,211.22c-2.59,0-3.68-1.16-4.12-2.25-1.51-3.69,2.62-10.56,6.02-12.92,1.93-1.34,3.88-1.66,5.95-2.01.27-.04.54-.09.81-.14v-1.45l.43,1.38c.66-.12,1.33-.27,2-.47,2.19-.66,4.31-1.56,6.37-2.42,1.11-.46,2.21-.93,3.34-1.37.07-.03.15-.06.24-.1.54-.24,1.65-.74,2.11.2l.18.37-.32.25c-3.9,3.03-9.04,4.69-13.21,5.8.11.34.23.67.34.99.83,2.35,1.61,4.58.3,7.39-1.14,2.44-5.93,6.13-8.55,6.58-.71.12-1.34.17-1.89.17ZM352.54,209.22c.78.94,2.31,1.22,4.54.84,2.29-.4,6.82-3.89,7.82-6.02,1.14-2.45.45-4.39-.34-6.64-.12-.35-.25-.7-.37-1.07l-.17.04v-1.46c-.22.04-.43.07-.65.11-1.95.32-3.8.63-5.54,1.84-.58.4-1.16.92-1.71,1.51,1.03-1.01,2.26-1.82,3.69-2.31,1.3-.46,2.5-.35,3.45.31,1.32.91,2.14,2.86,2.21,5.21.07,2.6-2.7,5.36-5.31,6.83-2.82,1.59-5.57,1.88-7.38.81h-.23ZM354.19,200.85c-1.74,2.69-2.8,5.86-2.03,7.74.07.18.16.34.27.49l-.03-.31c-.26-2.56.36-5.48,1.8-7.92ZM353.37,208.41c1.51.83,3.84.51,6.29-.87,2.83-1.59,4.84-4.09,4.8-5.93-.04-1.57-.53-3.56-1.77-4.42-.69-.47-1.55-.54-2.55-.19-4.7,1.63-7.09,7.02-6.76,11.4ZM364.74,194.79l.11.34c3.26-.86,7.59-2.21,11.16-4.42-.95.37-1.88.77-2.81,1.16-2.08.87-4.22,1.77-6.46,2.45-.67.2-1.33.35-1.99.48Z" style="fill: #9b241f;"/>
  </g>
  <g>
    <path d="M167.05,214.12c-5.29,1.31-15.63,3.61-13.54-5.13l-8.66,1.17-3.02-1.4c.59-.92,1.1-.65,1.95-.59,3.03.18,7.65.75,10.55-.42.36-.15,3.12-3.57,4.09-4.35,1.64-1.33,5.55-4.59,6.22-1.06.79,4.15-9.02,6.1-9.21,6.92l.4,1.6c-.75-.32-1.39-.36-1.4.7,3.02,4.64,7.69,1.9,11.91,1.64.93-.05.73.09.7.93h-.01ZM156.77,207.12c1.28.5,8.09-3.72,7-4.66-3.28-.7-5.05,2.61-7,4.66Z" style="fill: #9b241f;"/>
    <path d="M158.92,215.9c-2.08,0-3.84-.42-4.98-1.54-1.08-1.07-1.44-2.68-1.08-4.78l-8.1,1.1-3.67-1.7.31-.48c.66-1.02,1.38-.93,2.01-.86.12.01.25.03.39.04.46.03.95.06,1.48.1,2.9.21,6.5.47,8.86-.48.13-.1.89-.97,1.51-1.67.94-1.07,1.91-2.17,2.45-2.61l.1-.08c1.89-1.54,4.04-3.14,5.59-2.56.69.25,1.14.88,1.33,1.88.64,3.35-4.4,5.29-7.41,6.45-.67.26-1.41.54-1.73.72l.58,2.3-.93-.4c-.49-.21-.63-.15-.63-.15h0s-.05.05-.07.25c2.06,3.03,4.83,2.46,8.04,1.81,1.1-.22,2.23-.46,3.34-.52.45-.02.81-.03,1.06.23.24.25.22.55.19.87,0,.1-.02.21-.02.35l-.04,1.15-.63-.63c-2.72.66-5.55,1.23-7.97,1.23ZM154.16,208.4l-.17.71c-.5,2.09-.28,3.61.66,4.54,2.34,2.32,8.83.83,11.93.07,0,0,0-.02,0-.02-.05,0-.12,0-.2,0-1.04.06-2.14.29-3.2.51-3.31.68-6.73,1.38-9.16-2.38l-.08-.13v-.15c0-.59.19-1,.53-1.23.21-.14.44-.17.68-.17l-.23-.9.03-.12c.11-.48.63-.7,2.42-1.38,2.28-.88,5.85-2.25,6.66-4.17-1.22,1.56-6.04,4.53-7.44,3.99l-.7-.27.52-.54c.39-.41.77-.87,1.16-1.34,1.59-1.92,3.4-4.08,6.31-3.47l.18.08c-.13-.4-.33-.65-.59-.74-1.15-.42-3.58,1.56-4.62,2.4l-.1.08c-.48.38-1.51,1.55-2.33,2.49-1.28,1.45-1.63,1.83-1.89,1.93-.2.08-.4.15-.61.21l.24-.03ZM142.7,208.61l2.23,1.03,5.05-.68c-1.62.03-3.28-.09-4.76-.2-.52-.04-1.01-.07-1.46-.1-.16,0-.31-.03-.45-.04-.28-.03-.46-.05-.61-.01ZM162.89,202.87c-1.89,0-3.19,1.57-4.55,3.21-.09.11-.18.21-.26.32.72-.28,1.71-.77,2.82-1.49,1.49-.96,2.19-1.67,2.41-2.01-.14-.02-.28-.03-.42-.03Z" style="fill: #9b241f;"/>
  </g>
  <g>
    <path d="M380.15,210.67c-.89-1.01,2.88-8.6,3.34-10.2l5.22,1.23,9.65-6.91c.51.51-2.54,3.31-3.02,3.74-.65.58-5.06,4.27-5.38,4.43-2.33,1.09-4.2-1.84-5.6-.96-.94.59-2.81,10.24-4.2,8.67h-.01Z" style="fill: #9b241f;"/>
    <path d="M380.49,211.35c-.14,0-.33-.04-.51-.17h-.03l-.16-.17c-.72-.81.1-3.16,2.21-8.12.48-1.14.9-2.12,1.03-2.56l.13-.46,5.47,1.28,9.81-7.02.3.3c.14.14.21.32.2.53,0,.27-.02,1-3.24,3.94-.38.34-5.06,4.29-5.5,4.51-1.5.7-2.8.02-3.85-.54-.81-.43-1.33-.68-1.71-.45-.25.25-.81,2.02-1.22,3.32-1.16,3.65-1.81,5.39-2.75,5.59-.05,0-.11.02-.17.02ZM383.82,201.06c-.2.54-.53,1.31-.92,2.22-.79,1.86-2.61,6.13-2.38,7.02.55-.49,1.45-3.31,1.94-4.86.81-2.56,1.17-3.56,1.64-3.86.29-.18.58-.25.88-.25l-1.16-.27ZM385.92,201.55c.3.12.6.28.89.44.94.5,1.91,1.01,2.95.52.35-.21,4.5-3.67,5.26-4.35.59-.54,1.07-1.01,1.46-1.4l-7.65,5.48-2.91-.68Z" style="fill: #9b241f;"/>
  </g>
  <g>
    <path d="M289.43,195.55c-.65-.94-2.88,3.86-3.08,4.43-1.18,3.41-1.08,7.27-1.9,10.47-.16.65-.51.94-1.05.81-.27-4.19,1.62-7.88,1.14-12.17-.23-2.15-1.64-2.06-1.9-4.03,2.3-.08,1.98,2.09,3.2,3.81.69-1.94,3.12-7.22,4.51-3.33,1.05,2.93-2.17,11.99-1.68,15.7.66.83,5.67-3.49,6.68-4.19.34-.23.94-1.05,1.24-.34-1.14,1.21-6.5,6.52-7.57,6.22-3-.82-.32-8.37,0-10.54.15-.97.66-6.49.42-6.85h-.01Z" style="fill: #9b241f;"/>
    <path d="M289.06,213.45c-.06,0-.12,0-.17-.02-2.86-.78-1.6-5.88-.77-9.25.19-.77.35-1.43.41-1.85.14-.92.49-4.81.48-6.17-.7.8-1.94,3.28-2.19,3.99-.66,1.89-.91,3.97-1.15,5.98-.19,1.57-.37,3.05-.73,4.45-.11.43-.3.76-.56.96-.21.17-.57.33-1.1.2l-.35-.09-.02-.36c-.13-2.06.24-4.01.6-5.89.38-2.01.78-4.08.54-6.26-.1-.96-.45-1.38-.86-1.86-.42-.5-.89-1.06-1.03-2.15l-.07-.54.55-.02c1.89-.04,2.39,1.23,2.83,2.38.1.25.2.51.31.77.63-1.49,1.93-4.05,3.36-4.06h0c.72,0,1.29.58,1.7,1.73.61,1.7-.05,5-.74,8.5-.52,2.59-1.05,5.27-.95,6.94.98-.29,3.82-2.53,4.8-3.31.51-.4.91-.72,1.13-.87.06-.04.13-.1.2-.17.29-.26.7-.63,1.17-.52.19.04.45.18.62.58l.12.3-.22.24c-.06.07-6.05,6.38-7.89,6.38ZM288.33,211.61c.16.44.43.75.83.86.48-.02,2.18-1.41,3.89-2.98-.59.45-1.22.91-1.8,1.3-1.37.91-2.39,1.4-2.92.82ZM284.82,198.05c.1.28.18.61.22.99.25,2.32-.16,4.47-.56,6.55-.33,1.7-.63,3.31-.61,5,.03-.06.06-.15.09-.26.34-1.34.52-2.79.71-4.33.25-2.06.51-4.19,1.2-6.19,0,0,0-.01.01-.03l-.44-.62c-.26-.37-.46-.75-.62-1.12ZM288.37,207.68c-.17,1-.29,1.99-.24,2.81,0-.82.09-1.77.24-2.81ZM289.99,196.11c.03,1-.09,2.67-.22,4.04.27-1.64.41-3.1.22-4.04ZM289.13,194.66h0c-.58,0-1.53,1.44-2.27,3.06.67-1.28,1.56-2.69,2.27-2.78.15-.02.3,0,.43.07-.15-.23-.3-.35-.43-.35ZM283.29,195.63c.16.42.39.7.66,1.02.25.3.52.61.73,1.06-.05-.14-.1-.27-.15-.4-.37-.96-.6-1.5-1.24-1.68Z" style="fill: #9b241f;"/>
  </g>
  <g>
    <path d="M279.62,189.23c-.38.3-1.25.46-1.05-.58.94-.85,1.41-1.88,2.64-2.14.24.3-1.47,2.64-1.59,2.73h0Z" style="fill: #9b241f;"/>
    <path d="M279.12,190.27v-.32c-.22.02-.45-.02-.64-.13-.22-.13-.56-.47-.4-1.26l.03-.16.12-.11c.27-.25.51-.51.73-.76.56-.63,1.13-1.28,2.14-1.49l.3-.06.19.24c.07.09.16.25.13.49-.08.74-1.61,2.8-1.8,2.95l-.81.63ZM279.04,188.89c0,.08,0,.11,0,.11,0-.04.16-.09.26-.17l.03-.03c.12-.15.42-.57.71-1.02-.11.12-.23.25-.34.38-.21.24-.42.48-.67.72Z" style="fill: #9b241f;"/>
  </g>
  <g>
    <path d="M273.99,199.3l-1.08.54c-.15-1.14.18-2.02,1.13-1.9l-.05,1.36h0Z" style="fill: #9b241f;"/>
    <path d="M272.51,200.6l-.09-.7c-.12-.93.04-1.65.47-2.08.22-.22.6-.46,1.22-.38l.45.06-.08,2.11-1.97.99ZM273.52,198.63c-.05.09-.1.23-.12.41l.1-.05v-.35Z" style="fill: #9b241f;"/>
  </g>
  <g>
    <path d="M279.89,195.93c-.55,4.42-1.41,9.11-3.15,13.22-.62,1.47-2.87,5.67-3.92,6.64-.51.47-.74.7-1.51.57-.34-.3,2.25-3.15,2.56-3.66,2.02-3.28,3.89-8.63,4.51-12.44.19-1.13-1.49.74-2.13.9-2.63.62-5.49-1.39-2.4-2.54.01.53-1.13.66-.36,1.32,1.31,1.13,3.35.2,4.35-.94s.55-2.89,2.05-3.04h0Z" style="fill: #9b241f;"/>
    <path d="M271.69,216.89c-.14,0-.29-.01-.46-.04l-.14-.02-.11-.09c-.55-.49-.02-1.22,1.74-3.38.32-.39.65-.79.72-.91,1.81-2.95,3.63-7.88,4.35-11.71-.09.07-.18.14-.26.2-.51.4-.85.64-1.16.72-1.86.44-3.95-.27-4.31-1.46-.12-.39-.19-1.36,1.62-2.04l.66-.25.02.7c.01.44-.3.71-.51.88-.02.01-.04.03-.06.05,0,0,.02.01.02.02,1.05.91,2.82.05,3.65-.89.33-.38.48-.87.62-1.34.23-.78.53-1.75,1.75-1.87l.04.45.5.04v.45h-.06c-.45,3.54-1.28,8.56-3.13,12.95-.61,1.46-2.89,5.75-4.04,6.81-.45.41-.8.73-1.47.73ZM273.76,213.65c-.08.1-.17.21-.27.33-.36.44-.99,1.21-1.38,1.76.09-.07.2-.17.33-.29.33-.3.8-.98,1.31-1.8ZM278.25,199.39c.11,0,.22.03.33.09.09.05.18.14.24.27.17-.97.31-1.89.42-2.74-.06.16-.13.35-.2.6-.17.55-.35,1.17-.82,1.71-.02.03-.05.05-.07.08.04,0,.07,0,.1,0Z" style="fill: #9b241f;"/>
  </g>
  <g>
    <path d="M286.96,55.56c-.24-1.06.27-1.94.4-2.86.24-1.51-.05-3.02-.34-4.5-.71,1.83-1.16,3.74-1.95,5.55-.55,1.27-1.49,3.12-2.36,4.17-.4.49-1.23,1.44-1.88,1.38.54-.63,1.38-1.29,1.87-1.95,1.29-1.75,2.6-4.94,3.23-7.04.21-.69.63-3.31,1-3.58.1-.07.25-.15.28,0,.18,1.66.68,3.61.55,5.27-.03.45-.22.95-.26,1.4-.01.15-.12.5.12.46,1.95-4.05,6.04-6.67,10.27-7.77-1.13.87-2.57,1.24-3.84,1.92-2.21,1.19-5.04,3.64-6.16,5.92-.13.27-.51,2.06-.96,1.6l.02.03Z" style="fill: #2b2626;"/>
    <path d="M280.89,59.55s-.05,0-.07,0l-.49-.04.33-.37c.24-.27.53-.55.81-.83.38-.37.77-.74,1.04-1.1,1.23-1.67,2.54-4.77,3.19-6.97.06-.2.14-.57.23-1,.36-1.7.57-2.5.87-2.71.08-.06.27-.19.46-.11.06.02.17.09.21.26.06.54.15,1.09.24,1.65.2,1.24.41,2.52.32,3.69-.02.25-.08.51-.14.77-.01.05-.02.1-.03.14,1.95-3.37,5.54-5.92,10-7.08l1.18-.31-.96.75c-.73.57-1.59.93-2.43,1.28-.49.2-.99.42-1.46.66-2.11,1.13-4.95,3.55-6.05,5.81-.03.06-.06.18-.11.34-.22.71-.42,1.28-.74,1.44l.22,1-.77-1.15.1-.08-.11.03c-.17-.77.01-1.44.19-2.09.08-.3.16-.58.2-.87.18-1.18.03-2.39-.17-3.53-.18.51-.35,1.03-.51,1.54-.33,1.05-.68,2.13-1.13,3.16-.59,1.36-1.53,3.19-2.39,4.23-.81.99-1.47,1.48-2.02,1.48ZM287.3,53.98c-.11.42-.19.82-.15,1.26.15-.26.31-.8.38-1,.01-.04.02-.07.03-.11-.12,0-.19-.06-.23-.1-.01-.01-.03-.03-.04-.04ZM287,47.06c-.15.32-.34,1.11-.48,1.75.08-.24.17-.47.26-.71l.27-.68c-.02-.12-.03-.24-.05-.36Z" style="fill: #2b2626;"/>
  </g>
  <g>
    <path d="M267.2,50.6c.87-.22,1.7-.68,2.55-.93.12-.04.65-.24.67,0l-3.18,1.25c-.35,1.59-.14,3.95-.83,5.41-.07.15.02.26-.26.21.41-1.76.71-3.59.73-5.41l-.88.73c-.26-.49.86-.8.97-1.11.06-1.43.45-2.91.02-4.3-.8.44-1.67.78-2.46,1.23-.58.34-1.63.83-1.6,1.58.33.32,2.92-1.6,3.29-1.91.15-.13.17-.47.55-.38-.1.29-.31.47-.53.67-.48.41-2.88,2.14-3.42,1.89-.98-.47,1.06-1.75,1.38-1.95,2.18-1.3,5.45-2.68,7.87-3.47.49-.16,1.05-.36,1.56-.37l-6.41,2.59c.36,1.39.15,2.86-.04,4.27h.01Z" style="fill: #2b2626;"/>
    <path d="M266.25,56.79c-.06,0-.11,0-.14-.02l-.26-.05.06-.25c.41-1.79.65-3.37.71-4.81l-.7.58-.14-.27c-.27-.51.28-.85.64-1.08.1-.07.26-.16.31-.22.02-.39.06-.78.1-1.18.08-.74.16-1.49.08-2.21-.14.24-.34.41-.5.55-.03.03-2.88,2.31-3.69,1.92-.33-.16-.4-.38-.41-.55-.03-.72,1.35-1.59,1.77-1.84,2.31-1.38,5.64-2.74,7.92-3.49l.08-.03c.48-.16,1.03-.34,1.55-.35l1.36-.03-7.47,3.02c.27,1.25.13,2.53-.03,3.77.35-.11.69-.25,1.03-.39.38-.16.77-.32,1.16-.44.32-.11.63-.19.83-.06.09.06.15.16.16.27l.02.19-3.23,1.27c-.11.57-.16,1.24-.21,1.94-.09,1.21-.17,2.46-.61,3.4-.06.3-.25.36-.39.36ZM265.96,47.23s-.02.01-.04.02c-.43.2-.87.41-1.27.64l-.21.12c-.45.25-1.05.59-1.22.99.6-.22,2.1-1.25,2.74-1.76Z" style="fill: #2b2626;"/>
  </g>
  <g>
    <path d="M304.34,45.74c-.18,2.57-1.53,4.98-2.42,7.38-.33.87-.62,1.78-.93,2.67-.09.27.04.72-.36.7-.14-.17.94-3.18,1.12-3.64.85-2.32,2.08-4.52,2.36-7-.79.22-1.62.42-2.38.7-.44.16-3.16,1.3-3.33,1.49-.11.12-.08.31-.13.37-.02.03-.48-.03-.54.36,1.38,0,3.36-.6,4.56-1.32.33-.19.87-.81,1.1-.91.05-.02.18-.03.16.05-.16.5-1.18,1.11-1.68,1.34-.7.34-3.67,1.4-4.27,1.02-.5-.33.9-1.16,1.16-1.31,1.92-1.15,4.85-1.98,7.02-2.61,1.19-.35,3.76-1.2,4.87-1.18.13,0,.42-.08.39.11l-6.71,1.8h.01Z" style="fill: #2b2626;"/>
    <path d="M300.66,56.73s-.03,0-.04,0h-.11s-.07-.09-.07-.09c-.18-.22.18-1.53,1.08-3.89.24-.66.52-1.33.79-1.97.53-1.27,1.08-2.58,1.38-3.95-.42.69-1.71,1.3-1.72,1.3-.33.16-3.7,1.53-4.51,1-.15-.09-.22-.24-.22-.4,0-.24.17-.61,1.38-1.33,1.88-1.12,4.62-1.92,6.82-2.57l.28-.08c.19-.06.42-.12.67-.2,1.3-.4,3.25-.99,4.24-.99.03,0,.06,0,.11,0,.14-.02.34-.04.47.1.04.05.11.15.09.3l-.03.16-6.68,1.8c-.17,1.86-.92,3.64-1.65,5.36-.27.63-.54,1.28-.78,1.91-.19.5-.36,1.01-.54,1.52-.13.38-.26.76-.4,1.14-.02.05-.02.13-.03.2-.02.2-.05.66-.54.66ZM303.17,46.35c-.46.13-.92.26-1.35.42-.55.2-3.02,1.26-3.25,1.43,0,0-.01.06-.02.11,0,.04-.01.08-.03.13,1.2-.16,2.66-.64,3.64-1.23.14-.08.36-.29.55-.46.2-.18.34-.32.46-.4ZM303.52,46.26c.06,0,.12.03.17.08l.08.07c.01-.07.03-.15.04-.22l-.09.02c-.07.02-.13.04-.2.05Z" style="fill: #2b2626;"/>
  </g>
  <g>
    <path d="M274.09,57.39c.18-.18.16-.08.21.12.21.92.92,1.35,1.88,1.06.77-.24,2.21-2.16,2.61-2.89,1-1.8,1.78-5.59,1.21-7.57s-2.73-1.3-4-.49-2.49,2.68-3.17,3.94c-.6,1.14-1.22,2.55-.35,3.7.4.26,2.03-1.5,2.33-1.85.6-.71,1.33-1.81,1.77-2.64.08-.14.07-.32.07-.48h.37c0,.1.01.21,0,.3-.05.28-1.22,2.12-1.47,2.45-.35.46-2.01,2.29-2.45,2.44-1.4.48-1.45-1.06-1.31-2.04.3-2.13,3.46-6.51,5.69-6.92,3.71-.7,3.23,3.41,2.83,5.77-.3,1.81-.81,3.21-1.95,4.67-.92,1.19-2.51,2.92-4.03,1.47-.23-.22-.46-.82-.25-1.04Z" style="fill: #2b2626;"/>
    <path d="M275.57,59.24c-.5,0-.98-.21-1.41-.63-.22-.21-.4-.64-.41-.95,0-.23.08-.37.16-.44h0c.07-.07.21-.21.4-.16.17.05.2.22.22.33v.08c.1.38.28.66.55.82.27.16.63.18,1.02.05.62-.19,2.02-1.95,2.47-2.77.99-1.78,1.74-5.47,1.19-7.38-.15-.53-.43-.86-.84-1.02-.81-.3-1.97.14-2.79.66-1.44.92-2.72,3.17-3.08,3.84-.62,1.17-1.1,2.39-.41,3.37.29-.06,1.4-1.11,1.98-1.79.56-.65,1.27-1.72,1.74-2.59.04-.08.04-.19.04-.31v-.25s.25-.05.25-.05h.62v.34c0,.08,0,.16,0,.23-.07.38-1.32,2.32-1.51,2.57-.25.34-2.01,2.33-2.57,2.53-.5.17-.9.13-1.2-.11-.58-.47-.52-1.58-.44-2.2.3-2.16,3.53-6.7,5.89-7.13,1.1-.21,1.95-.02,2.53.54,1.16,1.14.93,3.55.6,5.52-.33,2-.91,3.38-2,4.78-.67.87-1.7,2.03-2.86,2.11-.04,0-.09,0-.13,0Z" style="fill: #2b2626;"/>
  </g>
</svg>