<?xml version="1.0" encoding="UTF-8"?>
<svg id="Layer_1" data-name="Layer 1" xmlns="http://www.w3.org/2000/svg" viewBox="0 0 7188.25 494.3">
  <g>
    <path d="M482.13,173.05c9.88-1.8,18.74-6.14,28.59-8.33,8.48-1.88,31.04-8.48,28.44,7.2-1.89,11.38-30.66,30.1-40.57,36.44-12,7.68-26.48,15.92-39.03,22.77-9.41,5.13-31.85,12.6-36.51,20.78-3.93,6.91-5.64,18.07-9.94,24.73-1.3,2.01-1.81,4.06-4.83,3.45l10.54-28.62c-1.73-1.4-18.6,9.18-21.1,1.51l24.2-8.63c12.25-24.54,22.69-49.97,35.32-74.33,7.95-15.34,17.86-29.8,25.73-45.12,2.1-4.08,9.09-17.13,9.75-20.4.97-4.75-10.59,1.37-12.56,2.52-3.03,1.77-12.1,7.7-14.54,9.57-6.39,4.9-10.65,14.27-19.66,14.29l1.53,2.99c-6.6-1.55-20.66,13.89-20.95-.71-.36-18.25,38.4-48.98,52.73-58.69,3.95-2.68,18.43-12.76,21.87-12.97,11.81-.71,5.12,25.81.61,31.66,18.43-4.92,36.61-12.79,55.47-16.12,48.4-8.55,9.49,26.9-4.93,40.3-21.96,20.4-46.82,37.15-70.14,55.72ZM521.95,137.52c19.22-17.17,43.97-31.72,55.07-55.68-.36-5.18-21.79-.72-25.56,0-17.14,3.3-34.56,10.04-50.79,16.3l-47.18,89.98,68.46-50.62ZM515.93,191.8c7.77-6.27,20.37-15.47,18.97-26.27-4.57-4.64-56.24,12-64.35,16.31-2.42,1.29-20.82,13.52-21.65,14.53-2.38,2.91-16.43,33.73-18.35,38.94-.69,1.89-1.62,3.4-1.18,5.59,13.31-5.42,26.13-12.37,38.69-19.33,15.41-8.53,34.34-18.85,47.86-29.77ZM496.83,95.82c3.46-3.65,10.44-30.98,4.15-31.25-27.33,18.36-61.84,37.14-71.61,70.8,2.39,1.83,24.87-10.99,27.29-14.24,1.32-1.77-.38-4.17.51-5.33.43-.57,10.38-6.62,12.09-7.59,5.44-3.09,25.07-9.74,27.56-12.38Z"/>
    <path d="M1916.7,190.61c2.56,2.17,31.88-5.45,37.63-6.12,1.65-.19,8.47-1.22,8.42,1.5l-52.18,11.55c-10.72,14.66-22.74,29.15-31.97,44.81-2.35,3.99-5.5,7.84-4.91,12.76-4.08.41-5.47-3.13-4.3-6.53l33.47-48.01c.33-2.55.13-2.47-2.29-2.31-20.83,1.44-42.92,13.47-61.15,22.96l-18.41,34.95c-4.32,1.5-9.88,6.02-14.13,6.63-3.81.55-2.19-2.73-2.26-5.34,8.1-8.14,13.98-25.27,21.46-32.3,15.93-14.96,19.63-24.36,31.9-41.81,22.87-32.52,49.01-65.19,70.71-98.22,5.13-7.81,9.74-16.04,12.56-25.05l-43.47,26.38c-12.26,10.12-25.46,19.66-37.18,30.39-9.36,8.57-38.1,36.22-43.37,45.69-.74,1.34-3.85,10.62-3.41,11.17,22.87-15.6,43.52-34.86,62.19-55.28,1.9.88.27,4.35-.42,5.72-3.55,7.04-30.46,30.88-38.02,37.23-4.9,4.11-21.55,18.19-26.09,19.99-3.88,1.53-2.31-7.98-1.93-9.61,4.72-19.92,59.49-69.08,77.19-82.52,10.53-7.99,39.17-28.68,50.32-32.6,3-1.06,5.61-1.56,8.8-1.18l-.72,9.27c-29.22,50.72-66.69,96.33-99.08,145.09-.46,2.11.1,2.9,2.26,2.26,6.18-1.83,15.09-8.02,23.04-10.76,12.04-4.14,24.65-6.17,37-9.07,5.27-5.59,9.82-13.74,14.47-19.32,10.87-13.06,24.03-23.77,28.33-39.2,1.97-7.08,22.34-25.24,27.75-32.19,3.8-.63,2.4,2.67,1.59,4.67-2.37,5.79-8.39,12.15-10.96,18.22l-52.83,66.17ZM1953.56,135.33c.74.81,15.03-15.54,13.79-16.89-2.74.91-15.04,15.52-13.79,16.89ZM1809.2,258.18c3.59.35,5.55-3.25,7.4-5.63,1.93-2.48,13.59-22.29,12.55-23.53-2.39-2.83-3.3,2.14-3.82,3.02-2.51,4.31-4.31,8.49-7.19,12.83s-8.83,7.42-8.94,13.31Z"/>
    <path d="M4166.87,255.31l-.78,3.06c-17.74-2.49-19.21-20.09-27.6-32.22-6.56,4.84-23.89,20.14-31.03,21.27-4.95.78-9.75-6.72-9.72-11.33,0-1.15,4.73-20.04,5.44-22.27,1.04-3.28,17.09-31.53,20.73-27.59l-16.68,27.03c-3.87,9.48-3.39,19.71-3.24,29.73,2.44,2.63,30.34-17.98,33.85-20.98l-6.23-21.96c3.73-4.16,8.75,14.79,9.19,16.14.53,1.62-1.14,2.78,2.29,2.25,16.51-20.14,34.53-39.42,50.53-59.95,14.39-18.45,52.82-65.69,45.12-89.43-.61-1.87-11.03-9.92-13.47-11.02-10.44-4.73-26.27-3.63-37.65-2.21-55.32,6.89-144.64,72.68-150.3,131.71-2.22,23.11,10.36,24.47,28.27,17.84,40.93-15.15,62.19-57.86,92.64-86.12,1.67-1.55,4.69-3.77,7.12-3.61.94.93-2.97,6.79-3.93,7.64-29.18,26.16-54.49,69.76-92.76,85.15-27.7,11.14-37.69.76-33.03-28.43,9.58-59.94,101.76-124.91,159.66-128.8,20.76-1.4,51.25,2.01,47.91,29.51-2.93,24.16-24.39,50.97-38.89,70.04-18.85,24.79-39.47,48.72-60.25,71.83,4.76,12.37,8.5,28.38,22.8,32.7Z"/>
    <path d="M4418.73,164.3c2.12-8.58,5.16-17.6,11.66-23.88.02-.05.04-.1.05-.15,26.92-24.71,68.69-53.62,90.14-80.67,17.83-22.49,1.45-20.2-21.94-13.42-29.14,8.44-68.96,29.13-92.9,44.55-8.42,5.42-15.48,12.14-23.68,17.76,2.48,2.02,8.09-2.08,10.06-3.25,5.01-2.99,8.78-6.93,13.62-9.86,15.98-9.69,33.4-18.1,49.28-27.89,4.35-.6,3.33,1.22,2.65,3.54-3.81,13.07-35.02,30.77-49.89,38.27-11.23,5.67-23.39,10.24-35,15.42-2.57-3.37,5.9-6.81,7.19-10.06-2.85-2.67-11.37,6.68-12.8,8.93-1.57,2.46-4.02,6.06,1.55,5.83,11.38-.46,52.14-22.35,62.47-28.81,7.28-4.55,12.91-10.49,20.7-14.57-7.42,15.7-16.05,38.62-27.9,52.48-8.49,9.92-28.61,19.23-38.94,27.9-1.41,1.19-14.44,13.59-6.12,10.91l37.03-27.83c1.55-.24,1.32,1.49.99,2.28-3.68,8.85-19.65,29.63-26.33,38.98-17.3,24.2-32.72,43.38-57.39,63.49-8.25,6.73.41,5.54,7.76,1.26,15.15-8.83,37.83-38.9,47.58-52.37,8.3-11.46,14.94-23.63,23.29-35.07,2.45,1-1.17,5.37-1.65,7.04-5.6,19.47-21.02,44.66-24.92,62.79-.98,4.57-1.69,5.78,0,10.28,2.26,2.78,5.92,3.54,9.05,2.63,24.58-7.2,52.22-25.86,69.9-40.2-2.16-2.6-4.49.7-6.15,1.56-21.05,10.99-41.04,28.36-65.77,35.81-2.79.84-5.47-1.53-5.03-4.41M4437.56,127.82l28.84-58.02-4.3-1.57c-.22-1.42.14-2.66,1.07-3.9,3.14-4.2,50.99-21.29,60.68-18.51,5.63,3.11-77.43,77.53-86.29,81.99Z"/>
    <path d="M2565.86,69.62c-10.32-3.7-22.49,3.64-31.17,9.4-26.05,17.29-41.66,56.97-62.42,80.51-4.15,4.7-14.77,11.65-16.28,14.22-2.96,5.04-13.86,58.5-13.69,65.53.07,2.79.84,7.49,3.28,9.29,14.49,2.22,51.03-31.24,62.29-41.51,2.44-2.23,19.35-22.2,22.08-19.41,2.16,2.21-.66,4.23-1.87,5.64-12.57,14.72-50.27,48.87-67.17,56.55-44.33,20.14-11.74-52.27-12.4-70.8-5.81.69-8.69,1.05-11.18-4.65-9.18,11.37-39.31,62.75-51.85,64.32-3.34.42-9.51-6.5-9.41-10.19.02-.93,3.37-14.18,3.95-16.03,4.15-13.11,10.25-19.68,20.82-27.91,3.42-2.67,7.88-6.52,12.09-7.5-12.87,17.05-40.24,32.06-27.3,56.82,2.19.34,12.73-11.66,14.65-14.07,36.16-45.45,49.33-90.93,79.23-136.5,5.17-7.87,24.27-33.66,31.31-37.72,4.66-2.69,5.94-1.06,5.09,3.87-10.72,4.11-20.65,18.08-27.22,27.7-17.98,26.32-29.5,56.2-44.25,84.3l6.74.54,2.84,6.65c33.33-23.8,46.08-72.3,80.4-94.75,6.71-4.39,27.7-16.1,31.41-4.3ZM2443.27,174.17c11.47,1.36,4.11-14.03.99-6.38-.83,2.04-1.29,4.17-.99,6.38Z"/>
    <path d="M1725.2,217.29c-2.51,1.98-6.45,8.9-10.76,12.41-31.37,25.59-89.4,43.55-121.95,11.2-33.95-33.74-6.24-79.62,15.26-111.37-7.05.89-19.95-8.55-18.56-15.76.65-3.41,7-1.5,7.43-.96.14.18-1.71,2.71-1.37,4.36.84,4.11,12.66,9.81,16.83,8.44,23.52-30.09,51.47-55.23,90.27-62.06,10.93-1.92,25.35-6.38,27.81,9.47,2.89,18.6-13.22,29.48-27.17,37.58-18.19,10.55-41.78,18.72-62.78,20.75-20.81,2.01-23.62-6.91-36.53,13.58-10.46,16.61-25.79,51.4-19.54,70.38,19.16,58.19,100.29,38.85,133.11,4.2.44-5.11-1.12-1.51-3.22-1.37-4.18.28-26.18,2.31-26.42-2.31,7.44-14.83,34.22-29.96,40.7-7.29l24.22-4.77c-4.6,8.45-22.16,9.42-27.33,13.51ZM1618.9,127.65c29.22,1.01,57.9-7.28,82.91-21.94,16-9.38,28.83-18.13,22.8-39.22-21.69,1.67-39.04,4.05-58.02,15.13-10.82,6.32-26.77,20.18-35.71,29.25-1.52,1.55-13.44,15.53-11.97,16.78ZM1722.85,211.18v-5.55s-18.59,1.83-18.59,1.83c4.87-8.88-10.49-.9-7.42,5.57l26.01-1.85Z"/>
    <path d="M1265.32,73.68c.79-5.14-.81-4.17-4.96-3.96-15.76.79-41.22,5.63-57.53,8.5-26.48,4.66-99.42,17.52-118.51,31.49-9.35,6.85-34.8,35.1-15.03,41.99,2.08-8.7-.31-15.2,4.13-23.95l.58.3c1.75-5.25,6.31-9.69,11.5-11.7,2.14-1.49,4.28-2.84,6.52-3.95.2-.12.42-.26.61-.37,5.57-3.27,34.82-14.16,38.68-10.31.32,2.79-.26,5.4-.89,8.1-2.88,12.48-14.9,42.56-20.15,55.85-7.72,19.57-21.89,48.6-35.95,64.05-10.51,11.56-27.16,14.92-33.01,29.97,2.37,2.33,15.13-13.21,22.84-14.48,2.63-1.21,5.41-1.77,8.51-2.43,3.68-.78,7.4-1.69,11.15-2.3,38.35-10.05,78.38-7.57,117.49-2.8-.81-3.52-4.96-4.26-7.92-5.06-33.57-9-77.86-6.62-111.05,3.11-5.55.13,14.01-26.47,15.32-28.69,2.42-4.11,10.76-24.3,11.94-25.02,2.47-1.52,4.27-1.31,5.58-.48,4.89.42,9.81.6,14.68,1.3,2.4.34,4.74.92,7.07,1.51,11.37,1.39,23.1,3.36,34.38-.68l-57.99-5.98,25.95-79.05,126.05-24.97Z"/>
    <path d="M4562.64,238.08c.95,5.6-1.38,8.73-5.51,12.02-.05,4.11,27.49,3.15,32.2,2.63,39.35-4.34,74.37-28.3,99.08-58.19,49.64-60.04-39.98-22.63-62.41-19.86-26.99,3.34-33.87-10.47-29.94-35.48,3.12-19.86,41.13-63.1,59-72.38,9.89-5.14,48.53-20.87,51.86-3.55,3.06,15.95-5.54,22.25-19.05,27.11-7.7,2.77-33.06,10.16-28.99-4.02,5.98,1.66,11.1,2.45,17.41,1.68,10.77-1.31,42.07-13.97,20.91-24.28-17.31-8.43-47.19,11.27-59.89,23.24-16.43,15.48-36.43,41.79-35.92,65.02.77,34.82,59.06,5.14,78.94,2.99,41.99-4.54,29.91,22.62,12.61,44.06-20.26,25.1-48.51,46.19-79.92,55.16-12.25,3.5-43.3,8.31-54.53,3.73-8.96-3.65-6.97-21.56,4.14-19.87Z"/>
    <path d="M5513.86,129.93c-25.71,24.42-54.46,69.12-70.78,100.75-1.54,2.99-10.04,31.21-15.95,25.49,10.85-22.4,16.25-46.79,25.22-69.88,12.05-31,28.72-61.83,41.05-92.27,2.99-7.37,14.61-36.79,6.95-41.96-5.59-3.78-8.62,1.91-11.59,3.18-13.13,5.62-33.86,16.88-43.05,30.11-2.24,3.23-1.99,6.65-3.15,8.23-1.43,1.94-5.17,1.5-6.54,3.17-.53.65.54,4.14-.19,6.21-1.54,4.38-8.88,13.86,1.67,13.36,14.44-.68,36.37-24.97,45.79-35.69,1.24-1.41,2.39-2.94,2.39-4.93l3.21,2.46-25.19,28.42c-9.11,5.31-23.87,18.93-34.17,9.8-5.61-4.98-4.18-9.66-.51-15.3,11.94-18.35,33.81-39.83,54.67-49.31,9.47-4.3,21.28-10.16,23.17,5.15,1.07,8.67-1.14,14.61-3.7,22.45-11.07,33.83-32.05,71.53-45.62,105.59-3.66,9.19-8.27,19.07-9.26,28.92l13.93-24.25c26.05-40.11,53.93-72.16,96.12-95.74,5.47-3.06,13.9-8.59,20-7.64-21.01,14.94-45.64,25.79-64.46,43.66Z"/>
    <path d="M273.45,252.93c-3.85,3.05-9.09,8.64-14.84,9.29-33.71,3.8-16.26-38.65-15.56-57.93-5.37,2.86-21.14,4.72-24.71,7.08-1.38.91-2.27,5.16-4.64,7.1-11.75,9.64-46.07,39.2-59.21,23.81-14.16-16.6,7.44-39.15,18.99-49.97,5.54-5.19,16.92-16.34,23.2-15.17-9.32,10.55-39.15,31.16-39.95,45.69-.29,5.26,3.56,12.2,2.02,18.33,36.01-.11,64.17-41.61,82.06-70.3-27.3-19.36-15.68-48.43.13-71.8,4.28-6.33,28.77-33.15,34.67-33.51,20.42-1.26,15.23,25.31,11.24,37.37-2.6,7.84-29.6,61.96-26.92,64.46l21.06-3.25-23.35,10.68-6.15,20.77,25.27-1.09c-7.6,6.02-17.88,7.76-27.16,7.86-1.97,19.57-20.34,66.49,16.01,50.08l59.66-51.38c-11.21,19.78-33.89,37.69-51.83,51.88ZM246.93,164.83c1.95-1.16,21.39-34.59,23.89-39.37,7.54-14.41,13.88-31.3,14.24-47.85l-7.74-1.84-1.58-3.89c-17.93,13.42-47.3,45.59-45.02,70.3,1.37,14.79,6.11,11.58,9.73,17.21,1.45,2.26-.86,9.8,6.48,5.44ZM246.88,197.33l4.61-25.58c-4.38-.98-4.79,2.33-6.78,4.93-2.97,3.87-15.38,19.62-16.36,22.22-2.68,7.05,16.18-.66,18.54-1.56Z"/>
    <path d="M3793.86,255.46c-4.73-9.53-3.08-20.56,4.11-25.59-1.74,5.79-4.27,9.1-4.05,14.41.6,14.28,5.43,13.07,12.76,3.92,20.64-25.77,35.07-67.94,53.85-96l.31-3.41c-9.1,1.48-23.58,7.36-28.43-3.71.83-8.9,5.56-7.11,9.5-9.96,9.87-7.14,18.2-13,30.93-14.79-10.56,10.91-32.99,9.68-35.95,26.94,1.9,2.84,24.2.03,27.63-3.06,7.6-6.84,21.01-45.47,25.58-56.83,3.6-8.96,9.29-17.82,11.21-26.99-1.07-1.04-27.16,7.19-28.52,8.21-2.82,2.13,1.24,9.07-8.93,3.02,4.71-4.83,12.32-7.43,18.69-9.78,24.79-9.16,67.99-17.2,94.21-15.92,20.86,1.02,11.51,19.3,3.24,29.46-28.67,35.21-71.95,57.93-113.84,73.46-19.19,29.67-33.37,67.84-53.52,96.32-1.2,1.7-6.56,8.12-10.9,11.88-2.5,2.17-6.4,1.39-7.87-1.57ZM3869.84,142.77c33.73-10.55,65.15-27.99,90.69-52.4,6.6-6.3,30.36-29.34,24.47-38.79-3.82-6.12-69.11,2.16-78.79,7.7l-36.36,83.49Z"/>
    <path d="M2679.16,451.57c-9.96.74-52.78,27.8-58.85,21.78-.24-5.01-.39-9.15,1.42-13.99,4.04-10.83,37.58-46.62,47.15-61.51,3.83-5.96,29.12-49.84,25.68-53.08-6.39-1.51-16.3,6-13.58,12.66l8.14-9.05c-10.67,32.23-32.7,61.88-54.62,87.52-1.36,1.59-3.54,5.88-3.29.35,11.33-17.46,20.17-36.45,31.06-54.14,2.6-4.23,8.22-10.42,11.27-15.81,1.24-2.19,1.84-4.76,2.91-7.03-2.59-.63-2.98.4-4.57,1.75-11.31,9.56-39.91,63.44-48.88,79.7-3.36,6.09-4.1,12.95-7.28,18.07-6.2,9.99-21.9,19.51-30.76,27.21-8.38,1.93-1.98-22.56-2.69-27.14-2.74.53-2.54,3.7-4.84,5.25-.49,1.47-1,2.92-1.53,4.33,1.44-.53,2.44-.75,2.76-.5-7.2,32.18,4.58,26.34,23.36,11.57,2.71-2.13,8.57-9.14,10.17-9.76,4.09-1.59,1.99,5.98,6.28,8.16,3.18,1.61,7.95,1.22,11.4.47l52-24.97c.47-2.35-.71-1.98-2.71-1.83Z"/>
    <path d="M3074.62,206.08c5.76.44,11.3,0,16.97-1.25,16.68-3.66,34.82-18.69,52.99-19.76-16.02,12.82-56.25,38.43-76.23,29.36-2.56-.56-3.2-3.1-3.63-5.38-3.32-17.67,22.46-63.35,32.74-79.49,2.74-4.3,27.58-32.64,24.73-35.42-13.26,5.1-25.1,16.67-38.08,22.07-7.34,3.06-31.11,10.44-36.31,3.24l-1.13-16.9c-4.53,14.62-20.87,21.97-30.91,32.07-39.51,39.74-87.97,97.89-140.71,119.57-65.66,27-23.6-84.4-6.12-106.87,3.67,1.81.09,7.67-.65,10.55-4.47,17.45-28.95,76.23-19.13,90.35,7.26,10.44,46.75-14.61,55.61-20.28,22.42-14.35,43.28-34.35,62.18-52.57,39.35-37.95,75.41-79.49,114.67-117.56,14.79-.56-15.21,31.48-16.39,33.48-.89,1.51-8.23,21.6-7.39,22.43,34.81-1.56,60.25-30.13,88.19-47.53,4.13-.76,4.98.01,4.2,4.2-1.94,10.36-37.13,50.68-45.37,63.8-6.08,9.69-37.22,64.94-30.25,71.92Z"/>
    <path d="M5699.19,242.99c43.38-6.55,87.46,10.52,130.69,15.01l18.72,6.49c-32.19,1.88-63.77-9.52-95.07-14.01-10.27-1.47-49.99-6.24-57.73-3.54-6.84,2.38-10.91,9.2-17.69,10.39-3.65-4.85,10.87-17.52,13.57-20.1,8.88-8.49,18.94-13.07,27.66-20.46,44.14-37.36,85.56-79.58,127.34-120.78-13.1-.67-27.66,4.95-41.2,5.96-20.18,1.5-69.21-1.2-85.88-14.71-10.52-8.53-15.58-25.07-5.09-36.78l9.55,1.39-1.16,7.3-7.82,5.65c.95,16.78,12.48,21.17,23.89,24.56,41.87,12.45,81.47,7.07,123.03-4.1.8,4.59-1.88,5.72-4,8.13-32.98,37.41-81.04,81.18-117.99,113.32-11.32,9.85-28.14,19.29-37.65,29.52-1.98,2.13-4.02,2.32-3.18,6.77Z"/>
    <path d="M2637.99,238.49c-7.43-.77-8.83,11.64-15.27,11.56-27.22-3.16-.57-34.69,11.32-40.52,10.38-5.08,6.44,3.15,11.93,6.94l54.01-95-16-1,.02-5.99c5.81,1.64,15.92,1.27,21.13-1.86,4.38-2.63,22.18-34.41,29.87-42.13,10.15-10.18,27.29-22.74,34.94-3.08-9.64,33.33-46.05,36.05-66.83,57.19-15.31,33.66-43.29,67.07-57.5,100.48-8.1,19.04.78,25.55,20.01,20.02,33.1-15.04,64.14-38.5,97.66-52.34,4.07-1.68,10.33-5.59,14.7-3.3l-111.96,62.04c-13.07,3.94-28.2,4.17-28.04-13.03ZM2716.02,108.49c19.86-9.43,40.78-19.56,49.93-41.01-3.85-5.41-11.12-2.4-15.79.26-3.23,1.84-7.64,4.4-11.24,6.63-3.84,2.38-25.2,31.34-22.9,34.12ZM2618.02,244.48c12.47-1.54,22.59-17.46,19.97-29.99-13.3,5.24-24.55,14.6-19.97,29.99Z"/>
    <path d="M3346.14,198.48c-3.82-17.19,4.31-31.61,6.61-46.65,3.77-24.63-.81-49.32-5.48-73.5-11.55,29.86-18.99,61.19-31.83,90.61-9.07,20.77-24.27,50.92-38.44,68.12-6.56,7.97-20.17,23.49-30.64,22.62,8.91-10.24,22.54-21.12,30.46-31.87,21.11-28.69,42.51-80.65,52.8-114.99,3.36-11.21,10.27-54.03,16.45-58.37,1.6-1.13,4-2.45,4.58.09,3.02,27.2,10.98,58.95,9.04,86.09-.53,7.42-3.48,15.6-4.21,23.01-.25,2.52-2.09,8.14,1.96,7.62,31.75-66.07,98.63-108.99,167.82-126.93-18.37,14.26-42.03,20.22-62.74,31.33-36.17,19.4-82.45,59.39-100.62,96.65-2.09,4.29-8.33,33.65-15.75,26.17Z"/>
    <path d="M725,115.8l-.12-4.61c5.2-.33,7.44,3.62,13.06,2.89,4.48-.58,15.31-6.71,19.21-9.54,4.49-3.25,28.15-25.24,24.87-29.85-18.55-6.23-29.85-5.08-47.11,2.85-43.22,19.84-90,80.72-86.35,129.82,1.07,14.36,14.91,30.94,29.44,32.5,29.75,3.19,52.63-5.08,78.12-18.8,6.42-3.46,13.75-11.35,21.17-10.61-6.88,5.89-14.3,11.48-22.2,15.92-31.37,17.64-91.81,35.54-108.35-9.27-10.64-28.83,16.88-80.83,35.29-103.51,17.43-21.46,52.53-45.82,80.61-48.08,1.56-.13,13.25.35,14.18.71,23.4,8.99-9.43,35.51-19.01,42.13-10.59,7.32-19.53,12.67-32.81,7.43Z"/>
    <path d="M1388.08,159.8c14.26-3.49,27.75-11.09,41.73-15.17,2.07-.6,10.52-3.83,10.92-.13l-51.83,20.38c-5.75,25.87-2.31,64.39-13.63,88.38-1.19,2.52.28,4.21-4.17,3.38,6.76-28.84,11.55-58.66,11.87-88.34l-14.43,11.88c-4.14-8.11,14.15-13.14,15.86-18.12,1.04-23.23,7.39-47.61.27-70.21-13.01,7.26-27.29,12.65-40.2,20.09-9.59,5.53-26.54,13.48-26.04,25.77,5.29,5.24,47.7-26.15,53.77-31.16,2.57-2.12,2.82-7.77,9.08-6.19-1.68,4.73-4.98,7.71-8.64,10.88-7.82,6.76-47.05,35.07-55.9,30.81-16.11-7.75,17.26-28.61,22.63-31.8,35.64-21.2,89.05-43.66,128.6-56.59,8.05-2.63,17.07-5.84,25.44-5.96l-104.62,42.44c5.93,22.71,2.47,46.67-.71,69.67Z"/>
    <path d="M2238.68,189.22c-6.24,16.23-14.47,40.82-6.48,57.61,1.14,2.4,9.85,7.95,13.09,6.87,11.01-3.69,37.61-65.19,42.75-78.24,10.79-27.39,22.44-61.2,30.13-89.55,3.24-11.96,6.18-24.4,5.14-36.85-17.44,5.94-30.97,22.23-40.14,37.55-4.75,7.93-11.32,17.03-7.63,26.87,13.28-7.35,22.07-19.98,30.15-32.52-.32,2.3,1.82,2.49.77,4.32-2.16,3.78-9.4,10.79-10.89,14-.84,1.81-.15,5.1-.68,5.68s-3.87.17-5.57,1.24c-5.49,3.45-7.84,11.35-16.43,10.49-1.2-.11-2.15-5.15-2.14-6.41.16-17.65,30.02-56.97,46.5-63.22,16.16-6.13,9.08,19.37,7.25,27.68-9.79,44.53-43.23,141.71-70.91,176.51-5.09,6.4-7.59,8.46-15.54,4.79-19.8-9.15-12.92-53.18.64-66.81Z"/>
    <path d="M4970.27,72.52c-3.07,42.02-24.98,81.33-39.51,120.57-5.29,14.3-10,29.09-15.16,43.5-1.58,4.41.67,11.79-5.94,11.3-2.38-2.82,15.47-51.87,18.25-59.48,13.81-37.76,33.96-73.83,38.44-114.3-12.81,3.45-26.43,6.9-38.89,11.4-7.18,2.6-51.61,21.22-54.42,24.29-1.88,2.06-1.33,5-2.1,6.02-.35.46-7.92-.48-8.86,5.82,22.59-.15,54.85-9.91,74.45-21.58,5.32-3.17,14.29-13.3,17.96-14.98.79-.36,3-.46,2.71.89-2.67,8.18-19.28,18.02-27.42,21.97-11.33,5.49-59.94,22.91-69.57,16.51-8.18-5.44,14.79-18.99,18.9-21.45,31.25-18.74,79.22-32.33,114.7-42.63,19.45-5.64,61.49-19.52,79.57-19.24,2.17.03,6.85-1.29,6.4,1.83l-109.51,29.54Z"/>
    <path d="M2936.35,472.43c3.11,3.05,35.52-19.47,40.9-22.08,1.89-.92,5.57-3.79,7.08-.92-15.13,14.78-34.62,23.02-52.94,33.02-6.82-1.35,2.64-21.34,4.58-25.38,5.85-12.13,15.95-20.63,20.35-32.63-7.87,5.93-12.41,14.13-23.98,12.01l-.99-14-47.68,55.32c-40.03,33.07-33-12.13-15.35-33.32.23,2.2-.04,4.34-.47,6.51-2.59,13.2-22.16,49.54,9.49,25.49,19.73-15,46.12-51.1,65.05-71.05,1.48-1.56,1.71-4.69,1.99-4.94,1.64-1.46,4.43-.74,3.96,2.95-.84,6.61-8.78,11.83-11.05,18.98-.83,2.63-3.01,9.45,1.95,7.97,12.96-3.87,28.78-24.6,40.1-33.92,2.26-1.86,3.23-4.85,6.99-3.99,3.53,3.85-17.86,24.01-20.86,28.12-3.75,5.16-31.84,49.19-29.12,51.86Z"/>
    <path d="M2047.74,259.91c-.49-4.21,3.38-3.42,5.92-7.13,13.98-20.41,22.58-58.83,30.91-82.83,11.84-34.14,24.79-67.76,33.84-102.96.22-.84.44-2.5-.73-2.26-8.5,10.03-37.94,34.94-46.89,15.38l7.68-1.54-3.07,4.58c4.86.35,8.67.22,13.4-1.18,6.88-2.04,23.92-15.32,29.18-20.75,1.85-1.91.97-6.84,4.27-5.7s.76,7.5.32,9.51c-7.28,33.96-20.76,66.18-31.85,98.79-9.04,26.57-16.63,58.3-28.86,83.34-2.68,5.48-7.05,14.53-14.13,12.75Z"/>
    <path d="M6801.45,478.16l11.98-21c.43-1.33-1.78-1.46-2.95-.97-10.97,4.61-27.19,17.91-38.97,21.03-8.59,2.28-15.43,3.04-17.06-7.04-7.76,5.18-14.84,14.9-25,13.98l28.04-22.94,34.98-41.03c3.58-1.51,3.61,2.25,2.64,4.65-1.84,4.57-10.1,11.94-13.33,16.67-6.71,9.84-13.44,19.73-18.34,30.64,8.04,5.88,50.05-24.37,59.98-27.98,3.58,4.86-10.16,20.6-11.96,25.03-.99,2.44.3,3.75,2.87,2.88l121.1-77.89-6.1,8.88c-37.51,19.18-74.35,54.42-111.16,72.84-5.68,2.84-10.49,2.58-16.72,2.26Z"/>
    <path d="M3301.73,413.09c-3.45-3.98-15.29,16.2-16.35,18.63-6.3,14.3-5.71,30.56-10.04,43.96-.88,2.72-2.74,3.94-5.59,3.39-1.42-17.57,8.55-33.08,6.09-51.1-1.24-9.03-8.72-8.63-10.08-16.88,12.22-.35,10.53,8.74,17,15.98,3.62-8.14,16.55-30.31,23.94-13.95,5.55,12.3-11.52,50.38-8.94,65.96,3.51,3.5,30.09-14.64,35.41-17.58,1.76-.97,5-4.42,6.57-1.43-6.06,5.09-34.48,27.35-40.17,26.11-15.9-3.47-1.73-35.2-.01-44.29.77-4.09,3.5-27.28,2.18-28.8Z"/>
    <path d="M3589.93,442.34c-5.16,6.85,2.61,21.83,1.43,32.46-3.18,28.6-39.32,24.07-31.55-5.57,1.64-6.27,18.01-22,17.5-24.44-4-5.05-11.15-2.61-16.76-3.15l-7.22,8.11c-3.21-12.38,8.66-15.5,19.09-14.1,6.24.84,9.05,6.46,11.64,5.99,2.84-.52,29.3-25.67,39.26-23.86-4.92,9.89-27.87,17.25-33.39,24.57ZM3572.41,484.63c1.37,1.67,2.45,3.48,3.9,5.08,10.23-10.09,12.97-26.05,4-37.92-11.6,8.91-13.97,16.1-10.95,30.55.31,1.5,2.4,1.51,3.05,2.3Z"/>
    <path d="M4581.24,429.63c34.5-11.24,31.01,7.06,11.79,26.81-10.31,10.6-29.16,25.54-43.79,27.19-1.19-5.43,1.65-3.41,3.97-4.94,18.44-12.15,41.89-24.14,48.01-47.04-9.6-2.25-20.16,9.1-27.88,1.02,8.69-16.65,18.62-35.42,33.87-47.03,1.03,3.99-1.3,5.43-2.9,8.08-2.04,3.41-24.74,34.55-23.08,35.9Z"/>
    <path d="M5159.18,484.49c-.12-12.21,9.09-21.48,13.49-33.51,1.78-4.87,10.9-31.07,3.46-32.48l-18.94,5.98c-2.6-1.96,18.9-15.27,25.01-7.99,10.93,13.02-19.32,61.02-16.99,64.01,28.06-12.56,40.78-41.61,63.96-60-.74,6.1-6.26,12.3-10.04,16.94-9.34,11.49-35.37,40.91-48.01,45.99-3.97,1.59-7.83,1.24-11.94,1.07Z"/>
    <path d="M4326.31,471.27c-3.8-4.35,12.35-36.82,14.29-43.68l22.35,5.27,41.33-29.58c2.17,2.19-10.88,14.2-12.93,16.05-2.77,2.5-21.66,18.27-23.09,18.94-9.98,4.65-18-7.89-23.99-4.12-4.05,2.55-12.03,43.9-17.96,37.12Z"/>
    <path d="M6533.83,196.05l-21.06,3.05c-8.52,17.23-18.96,35.39-31.45,50.09-2.34,2.75-15.42,18.04-18.39,14.92l.1-4.13c5.53-.55,10.38-6.67,14.03-10.8,6.01-6.79,30.49-42.47,31.25-49.61.44-4.16-5.89-.39-4.25-4.22,1.53-3.57,5.43.54,8.53-2.76,2.44-2.59,8.2-15.13,10.43-19.42,16.94-32.63,29.49-61.54,41.33-96.27.52-1.53.05-5.49,2.78-4.24,2.9,1.33,1.67,3.49,1.53,5.63-.9,13.85-11.57,31.91-16.01,45.09-7.05,20.95-9.82,43.33-14.55,64.87l19.82-5.71-21.03,13.01c-2.3,16-5.62,30.18-4.55,46.62s4.21,29.15,23.48,19.11l20.54-10.67c-5.37,7.55-28.1,21.53-36.79,18.41-1.84-.66-6.69-4.65-7.82-6.39-2.98-4.58-3.84-26.67-3.65-33.34.3-10.86,3.14-22.73,5.73-33.25ZM6516.82,194.61c3.66.42,15.98-1.18,17.75-4.21l7.75-46.83-25.51,51.05Z"/>
    <path d="M6575.03,42c6.2.43,13.33-.58,19.36,0,2.8.27,6.4,1.17,3.03,3.08-8.65,2.7-22.82-.42-29.11.28-3.3.37-18.95,11.99-17.74,5.12,1.38-7.83,10.9-7.14,18.21-10.9,4.24-2.18,29.51-24.97,32.69-22.26,6.44,5.49-30.4,22.05-26.44,24.67Z"/>
    <path d="M3602.2,234c2.94-3,2.66-1.32,3.39,1.93,3.4,15.03,15.08,22.07,30.71,17.18,12.57-3.93,36.09-35.38,42.72-47.27,16.42-29.47,29.18-91.19,19.8-123.48-9.15-31.53-44.51-21.27-65.29-8-19.78,12.62-40.68,43.67-51.7,64.3-9.93,18.61-19.85,41.63-5.68,60.5,6.48,4.14,33.14-24.52,37.97-30.22,9.85-11.63,21.82-29.67,28.98-43.09,1.28-2.41,1.21-5.22,1.09-7.86l5.98.02c.02,1.62.24,3.29-.05,4.91-.83,4.58-19.92,34.71-23.94,40.08-5.69,7.6-32.84,37.4-40.08,39.9-22.89,7.89-23.62-17.3-21.4-33.38,4.81-34.84,56.39-106.24,92.95-113.05,60.67-11.3,52.68,55.71,46.26,94.26-4.94,29.63-13.23,52.38-31.77,76.23-15.07,19.38-41.05,47.68-65.86,23.95-3.75-3.59-7.57-13.36-4.08-16.92Z"/>
    <path d="M3614.33,182.72c-13.18,14.11-27.05,34.21-12.65,53.99,6.15-6.82-.29-26.93,3.62-34.55.94-2.47,2.55-4.45,4.33-6.71,1.04-1.32,2.14-2.57,3.38-3.64,2.86-4.46,10.44-12,13.59-15.8,1.67-2.02,2.78-4.46,4.75-6.27-4.76-1.64-12.95,8.63-17.02,12.98Z"/>
    <path d="M1001.96,89.15c-10.46-28.13-58.86-16.03-79.44-4.56-5.79,3.23-14.34,8.99-17.06,14.71l-2.61-5.92c-.29-.19-3.51,1.35-4.01,2.02-1.02,1.36-2.75,16.47-2.55,18.78.41,4.68,3.42,7.7,3.53,11.56.56,19.23-3.55,41.11-7.05,59.77-3.64,19.38-8.15,38.43-13.69,57.47-2.58,5.69-25,13.62-29.62,11.04-4.19-2.34-.36-6.68-.1-9.65.76-8.65,1.34-8.69,3.78-16.71.42-1.38.93-3.5-1.7-2.74-1.13.33-9.16,16.61-9.49,18.64-.06.39.08,7.38.16,7.84,2.86,15.78,25.1,6.6,34.7.78.08.1.13.25.16.46,2.33-1.82,4.97-3.26,7.78-4.42,0-.02,0-.05,0-.07,16.03-9.69,30.74-20.75,44.85-32.67,31.69-26.77,88.14-83.86,72.34-126.32ZM988.04,140.63c-21.46,36.6-60.92,71.61-96.87,96.74-1.31.91-1.65,2.3-3.91,1.76-.65-6.21,3.41-11.64,4.84-17.5,5.77-23.56,9.5-48.56,12.1-72.55l2.58,2.36c-4.88-15.89-.79-32.3-.61-48.56,6-4.77,11.67-10.14,18.47-14.01,11.54-6.57,31.86-12.89,45.38-12.12,10.02.57,18.56,2.38,23.84,10.31,9.75,14.64,2.66,39.13-5.81,53.58Z"/>
    <path d="M5330.64,51.13c-4.33,2.13-19.88,16.94-24.4,21.3-11.85,11.44-20.07,24.73-28.06,38.95-.57,2.45-1.23,4.88-1.82,7.34-.6,2.51-.79,5.1-1.06,7.67,0,.03,0,.06,0,.09.76,17.04,3.74,33.21,1.42,50.3-2.62,19.33-14.22,46.39-26.35,61.08-3.59,4.35-12.72,11.66-20.94,16.68-5.05,4.34-10.68,7.6-17.7,7.39-7.65-.22-14.63-3.44-16.53-11.86-1.22-5.41-.96-11.21-.95-16.72.02-6.54-.08-13.1.06-19.64.24-11.36,1.39-22.7.84-34.05-.04-.22-.07-.45-.09-.69-.04-.79-.07-1.58-.11-2.37-.03-.35-.05-.7-.08-1.06-.02-.28-.02-.55,0-.8-.62-14.64-.61-29.29-1.48-43.93-.49-8.16-.96-16.24-.72-24.41.16-5.42.41-10.83.38-16.25-.36-2.91-.69-5.78-.84-8.1-.41-6.36,3.89-18.96-6-18.8-4.59,1.01-2.14,8.09-2.85,11.26-1.76,7.83-15.65,23.36-22.35,27.87-7.14,4.82-26.9,13.21-34.89,11.89-3.3-.55-11.98-6.93-12.55.65-.08,1,1.23,2.66,2.79,4.16,4.59.85,8.71,1.83,13.52,1.6,5.03-.25,9.78-.79,14.59-2.4,8.62-2.9,17.44-6.82,25.19-11.75,2.35-2.55,6.03-4.88,8.26-7.54,2.98-3.55,3.84-7.56,7.29-10.2-.45,3.58-.69,6.66-.4,10.34,3.08,38.84,3.33,78.21,3.64,117.17.11,14.27-2.97,33.88,4.58,45.49,12.37,11.47,34.89,3.9,46.48-4.97,8.39-6.42,14.78-15.3,21.49-23.51,1.84-2.26,4.04-4.53,6.23-6.87.84-1.11,1.66-2.26,2.46-3.43,3.85-7.85,7.03-15.75,9.03-24.71,2.72-12.18,5.49-24.99,4.98-37.58-.02-.62.06-1.17.22-1.65-.19-4.11-.33-8.22-.39-12.33-.81-5.35-1.1-10.77-.72-16.12.6-8.42,2.54-18.59,8.79-24.46,2.3-3.81,4.61-7.19,6.16-9.3,8.18-11.07,19.5-21.6,28.87-31.87,3-3.29,8.66-7.78,11.16-11.16,4.21-5.7-3.73-4.36-7.19-2.66Z"/>
    <path d="M4901.59,432.32l-15.25,3.75-23.77,2.22c-1.95,1.72-17.3,41.89-16.99,44.97,1.06,10.59,11.34,5.5,17.05,5.06,2.2-.17,7.46-1.44,6.95,1.97-47.78,18.19-22.95-30.27-11.99-51.95-10.69.49-22.33,3.84-32.91,4.07-4.15.09-10.67,1.87-9.1-4.09l44.04-4.98c5.91-12.39,17.07-24.01,19.99-37.03,3.48-.2,4.32-.91,4.07,3.06-.58,9.32-14.88,22.51-16.09,32.94h34Z"/>
    <path d="M4105.12,433.93l17.99,1.9c-32.08-4.42-27.27,28.14-40.81,44.19-2.68,3.17-2.56,1.38-4.91-.92l17.75-39.09c-8.25,3.06-19.36,1.24-22.97,10.09-3.89.99-3.79-2.26-2.77-4.74,3.37-8.22,21.74-7.91,28.74-11.35l14.79-31.12c-7.38.05-16.35,6.6-24,2.15-11.57-6.73,3.84-36.57,11.33-43.11,6.99-6.1,31.46-16.08,37.49-6.19,8.85,14.52-32.81,60.44-32.64,78.18ZM4128.32,356.26c-3.72.11-14.73,2.45-18.15,4.1-19.08,9.23-33.8,56.97,2.14,35.94,9.07-5.31,21.57-25.83,22.11-35.93.24-4.53-3.08-4.2-6.1-4.11Z"/>
    <path d="M6283.9,449.66c-10.04,16.36-33.94,20.66-46.05,29.05-4.26,2.95-7.49,13.5-13.19,6.8l9.65-10.47c-6.33-13.64-2.62-25.86,6.06-37.61,6.25-8.45,29.19-24.42,39.06-17.35,4.63,3.32,2.81,10.2,6.89,12.1l17.86-38.07c13.72,3.5,2.2,10.99-.73,16.21-6.49,11.54-13.62,29.68-19.55,39.35ZM6248.54,468.36c16.75-5.18,37.21-24.06,27.92-43.27-10.02-7.02-12.3,14.87-15.69,22.56s-8.24,13.62-12.23,20.71ZM6260.33,430.33c-14.87,6.41-27.68,20.66-23.78,38.11,3.54.55,4.39.06,6.89-2.11,4.11-3.55,19.92-32.78,16.89-35.99Z"/>
    <path d="M7188.25,260.46H0V0h7188.25v260.46ZM1,259.46h7186.25V1H1v258.46Z"/>
    <polygon points="7188.25 491.89 0 491.89 0 231.43 2.4 231.43 2.4 232.43 1 232.43 1 490.89 7187.25 490.89 7187.25 231.93 7188.25 231.93 7188.25 491.89"/>
    <path d="M1957.81,459.52c3.27-3.08,7.31-15.06,13.97-10.86-9.66,10.17-23.25,19.46-23.49,35.27,9.97,9.74,52.99-46.95,58.54-55.1,7.58-11.14,14.14-24.15,19.88-36.34l5.2,3.98c-11.4,21.8-52.82,90.36-77.37,92.68-4.96.47-10.4-.37-12.86-5.21-5.97-11.72,9.58-18.27,16.14-24.44Z"/>
    <path d="M2036.56,365.66c-2.57,1.66-8.69,2.5-7.27-3.18,6.49-4.64,9.84-10.36,18.25-11.78,1.64,1.61-10.2,14.46-10.98,14.96Z"/>
    <path d="M2262.87,324.35c-2.57,1.66-8.69,2.5-7.27-3.18,6.49-4.64,9.84-10.36,18.25-11.78,1.64,1.61-10.2,14.46-10.98,14.96Z"/>
    <path d="M2405.4,446.28c-8.1,10.67-26.01,24.49-27.65,38.07-.16,1.31-1.64,3.61,1.25,4.19,5.17,1.03,30.77-33.46,34.59-39.37,11-17.03,25.62-41.04,34.67-58.96,6.32-12.53,10.84-30.81,17.25-41.65,1.23-2.08,1.83-4.05,4.82-3.47.96,1.06-8.86,23.35-10.29,26.69-11.04,25.66-28.19,55.32-43.43,78.89-7.1,10.98-24.14,34.02-34.55,40.98-4.7,3.15-8.46-.3-8.49-5.35-.04-7.33,21.57-40.39,31.83-40.03Z"/>
    <path d="M2471.1,396.96l-3.43,4.83c-17.48,12.54-49.67,42.6-53.83,64.02-.63,3.21-1.67,5.36,1.61,7.6,11.83-2.6,19.1-8.95,29.03-14.73,2.44-1.42,6.8-5.32,9.48-4.11-6.17,7.08-35.5,27.04-43.88,21.24-3.35-4.72.42-12.5,2.38-17.43,11.78-29.51,65.08-72.29,89.7-96.11,1.29-1.25,3.54-7.86,4.64-1.34l-35.7,36.03Z"/>
  </g>
  <path d="M3826.57,398.31l-17.09,51.56-17.66,40c-.44-3.7.23-7.12,1.18-10.68,5.75-21.48,19.59-45.63,26.39-68.8,4.32-14.73,6.37-27.87,8.57-42.63,2.1-14.11,36.55-34.32,42.91-21.43,8.72,17.66-27.55,49.97-44.3,51.99ZM3828.02,394.27c13.71-4.55,38.94-25.1,40.07-39.87,1.39-18.08-26.4-2.19-31.92,6.88-1.48,2.43-9.21,31.67-8.15,32.99Z"/>
  <path d="M2264.7,344.86c-3.94,31.67-10.17,65.48-22.59,94.97-4.44,10.53-20.6,40.7-28.13,47.7-3.67,3.41-5.36,4.99-10.87,4.06-2.37-2.09,16.11-22.66,18.36-26.32,14.51-23.57,27.96-62.02,32.41-89.34,1.32-8.08-10.69,5.34-15.3,6.43-18.86,4.48-39.48-9.94-17.16-18.28.1,3.76-8.08,4.72-2.64,9.44,9.34,8.11,24.07,1.43,31.26-6.77,7.4-8.44,4-20.75,14.66-21.89Z"/>
  <path d="M5755.13,478.2c3.26,2.43,0,3.63-2.94,4.02-15.84,2.1-36.69-.18-53.03.26-4.91-4.55,22.27-23.74,25.88-27.1,4.22-3.93,8.66-8.29,11.9-13.07-13.81,3.07-30.05,17.34-41.94,3.2l20.43.38c3.34,1.45,32.63-14.48,31.46-10.66-7.71,16.43-25.57,24.82-36.86,37.14-1.82,1.99-3.63,2.84-2.91,6.08l48-.25Z"/>
  <path d="M6424.29,56.06c-10.52,33.61-55.06,46.09-81.82,65.25-4.06,36.78-18.29,71.8-40.45,101.23-12.08,16.04-39.4,40.23-61.19,36.12-23.83-4.49,5.07-41.45,12.3-50.68,4.43-5.66,25.89-29.98,30.86-31.14,1.32-.31,4.85-.88,4.93.9-3.77,3.12-7.58,5.37-10.99,9.02-5.92,6.35-35.45,41.04-37.61,46.34-8.01,19.63-.55,23.32,18.1,17.91,38.57-11.19,74.47-84.38,78.25-122.5-4.17-.57-7.08.48-10.7,2.32-19.63,10.01-61.28,43.69-78.99,59.11-14.71,12.81-28.24,31-42.75,43.24-2.24,1.89-3.21,4.86-6.97,4.02l14.86-20.1,22.9-23.1-17.88,10.16c-7.33,2.76-14.7,1.11-17.19-6.86-7.78-24.88,26.05-62.94,43.75-78.27,29.55-25.59,84.39-63.85,97.92-2.58,22.41-17.23,54.1-27.86,72.76-49.36,3.29-3.79,3.66-11.51,9.94-11.04ZM6327.88,95.14c-13.79-14.9-38.44-2.59-52.01,6.02-22.92,14.55-75.78,59.61-73.06,89.04,2.03,21.96,23.25,3.69,32.18-4.16,9.62-8.46,22.56-22.75,25.82-35.16,3.23-.2,4.5-.97,4,2.95-1.23,9.57-18.9,26.85-25.82,34.17l2.97.96c17.25-14.69,34.63-29.77,52.93-43.13,7.97-5.81,35.96-20.97,39.9-26.24,3.47-4.64-3.37-20.64-6.91-24.46Z"/>
  <path d="M6502.09,382.22c2.89.2,6.21-.27,9.02,0,1.31.13,2.98.54,1.41,1.44-4.03,1.26-10.63-.2-13.56.13-1.54.17-8.83,5.58-8.27,2.39.64-3.65,5.08-3.33,8.49-5.08,1.98-1.02,13.75-11.63,15.23-10.37,3,2.56-14.16,10.28-12.32,11.5Z"/>
  <path d="M6558.79,448.02l-12.52,12.46c-10.44,10.31-25,6.07-33.83,8.12-5.84,1.36-11.56,10.72-16.98,13.21-5.56,2.56-17.67,5.24-20.12-2.79-5-16.41,30.47-61.45,47.32-53.81,14.95,6.78,3.91,27.31-4.82,35.03l2.13,3.96c15.06.07,25.89-10.49,38.82-16.18ZM6524.72,432.22c-5.56.41-16.79.77-21.11,3.95-1.09.8-15.87,18.73-17.14,20.84-4.06,6.72-6.64,13.39-5.5,21.42,7.06.83,13.49-1.8,19.03-6.01l-1.09-5.96c14.56-.12,12.02-18.23,17.76-26.79,1.9-2.84,7.22-3.31,8.06-7.44Z"/>
  <path d="M1075.02,469.76c-2.52-1.85-12.65,6.01-11.83-1.08,16.02-4.65,14.41-16.33,24-27.44,4.79-5.54,11.45-13.82,19.09-7.71,8.29,11.87-16.05,26.33-24.77,30.47.27,30.37,33.42,7.04,49.64,8.64-17.14,8.87-48.6,25.07-56.14-2.88ZM1085.18,455.64c2.15,2.29,20.21-15.58,17.97-17.99-7.93,3.4-17.03,8.18-17.97,17.99Z"/>
  <path d="M1839.71,351.46l-18.61,81.29c23.68-21.15,60.48-43.78,35.95,9.49-7.31,15.88-22.56,30.37-24.57,48.13-3-.72-8.79,2.1-7.45-4.4,2.38-11.5,22.15-35.16,27.9-48.46,5.8-13.42,11.09-28.59-9.12-16.06-4.92,3.05-19.66,16.13-22.99,20.74-10.57,14.66-7.73,28.56-11.86,43.27-1.23,4.39-2.57,6.37-7.47,5.27.24-5.46.53-10.91,1.47-16.33,4.8-27.75,14.8-63.23,22.24-91.05,1.96-7.34,5.73-23.61,8.47-29.13,1.48-2.98,3.62-6.23,6.02-2.76Z"/>
  <path d="M252.29,452.05l-12.52,12.46c-10.44,10.31-25,6.07-33.83,8.12-5.84,1.36-11.56,10.72-16.98,13.21-5.56,2.56-17.67,5.24-20.12-2.79-5-16.41,30.47-61.45,47.32-53.81,14.95,6.78,3.91,27.31-4.82,35.03l2.13,3.96c15.06.07,25.89-10.49,38.82-16.18ZM218.23,436.25c-5.56.41-16.79.77-21.11,3.95-1.09.8-15.87,18.73-17.14,20.84-4.06,6.72-6.64,13.39-5.5,21.42,7.06.83,13.49-1.8,19.03-6.01l-1.09-5.96c14.56-.12,12.02-18.23,17.76-26.79,1.9-2.84,7.22-3.31,8.06-7.44Z"/>
  <path d="M691.11,460.26c1.66-6.54,26.36-18.13,15.96-25.16-16.5-11.15-51.64,24.07-45.58,42,5.58,16.51,52.68-.82,63.68-4.98,3.64,2.7-42.55,24.96-61.33,14.7-31.19-17.03,30.79-75.38,46.9-55.44,12.4,15.34-9.59,17.74-11.53,29.92l-8.1-1.05Z"/>
  <path d="M946.75,348.32c3.13,3.04-14.55,34.31-17.44,39.43-13.81,24.42-31.2,49.67-47.96,71.93l3.28,4.8,44.67-11.08c-9.01,5.38-23.74,12.41-33.82,14.28-6.77,1.26-17.53-.28-22.1,2-1.84.92-15.04,17.28-13.9,21.11l-7.98-4.95c1.87-3.02,22.76-20.45,19.85-23.12l-41.93,13.24c-3.64-2.96-1.94-3.33-.05-6.06,8.05-11.63,20.57-11.74,4.04.02,11.14.34,41.16-8.15,38.88-23.2l-26.94,13.14c8.81-10.13,21.9-19.51,35.88-19.19l-3.93,11.99c3.28.62,5.23-1.75,7.07-3.93,7.15-8.46,19.67-29.19,26.33-39.61,6.91-10.82,26.97-41.54,30.08-51.82.4-1.32.39-3.38-.97-2.94-8.05,4.32-14.97,10.21-21.97,16.05-7.04,5.87-11.18,17.39-22.87,15.18,16.75-12.45,30.33-33.2,51.79-37.27Z"/>
  <path d="M480.79,349.41c-1.83-6.58-9.84-1.19-13.18.47-7.59,3.76-17.39,10.59-24.4,15.64-11.9,8.58-23.02,21.89-35.88,27.19l2.85,5.8c18.27-17.98,39.32-33.77,61.76-46.34,3.23-.33,3.38-.24,3.01,2.95-.72,6.13-10.16,25.83-13.45,32.49-6.38,12.94-23.71,45.72-32.3,55.58-4.98,5.71-17.26,8.26-23.5,14.1-.5,2.16-1.25,4.27-2.29,6.18,5.52-4.09,11.06-8.13,17.08-11,3.26,1.99-.65,4.42-1.97,6.01-7.77,9.41-18.47,22.35-20.83,34.08,5.81,1.78,3.58-4.89,7.18-5.86,2.13-.57,5.86,1.47,10.32.51,4.86-1.05,14.87-7.72,19.46-10.78,2.25-1.5,14.29-9.49,14.88-10.17,1.07-1.23.45-5.25-2.97-3.92-8.95,3.49-22.47,19.58-33.9,20.22-2.68.15-3.96.15-3.02-3.01.68-2.29,18.69-28.77,20.95-31.01,8.74-8.63,30.71-13.69,42.77-14.35,4.92,4.7-16.8,18.47-16.85,24.09,6.78-.37,26.73-20.04,22.67-25.95-14.33-6.94-27.81,5.78-41.78,5.05,9.1-11.61,46.22-77.73,43.37-87.98Z"/>
  <path d="M1353.9,422.84l10.83-2.77c-5.17,5.36-12.3,5.78-17.02,11.96-6.3,8.25-25.25,53.32-30.59,56.14-.81.43-3.09.38-2.69-.87l28.64-55.35c-9.77,5.96-18.59,11.05-30.68,10.12,8.56-7.17,26.83-9.21,34.3-16.46,9.22-8.95,23.12-44.44,30.74-57.79,1.51-2.64,4.24-4.26,5.85-6.81,3.65-5.8,2.79-12.67,10.94-16.15,14.42,20.74-8.84,53.08-30.47,58.03l-9.84,19.95ZM1395.12,350.26c-4.54-.95-3.19,1.06-4.67,3.41-3.09,4.88-24.27,41.64-22.21,43.76,18.81-7.66,29.65-27,26.88-47.17Z"/>
  <path d="M5495.11,404.48c-23.8,11.82-25.88,46.36-25.63,70.16-3.87.78-4.84-1.77-6.42-4.55-5.23-9.2-7.95-27.34-12.24-37.89-1.42-3.49-10.92-23.33-12.67-23.34-8.23,7.99-13.71,23.14-8.83,33.99-10.62.44-4.09-20.54-1.62-26.46,6.33-15.22,14.2-14.99,20.91-.04l16.77,42.33c1.46-21.95,7.92-48.64,29.7-58.14l.03,3.96Z"/>
  <path d="M6006.57,451.98c-2.57,3.65,8.81,11.89,11.8,13.1,9.79,3.96,17.6.89,26.9.27,3.02-.2,2.37.32,2.27,3.02-12.06,2.77-21.47,4.97-33.22-.72-4.25-2.06-11.78-10.65-13.32-10.94-2.44-.46-13,8.96-26.43,5.32-9.37-2.54.3-17.61,3.93-21.99,4.56-5.48,20.77-16.14,27.51-18.04,6.34-1.79,24.93-5.42,28.99.43,2.43,8.29-20.57,27.64-28.44,29.55ZM5974.69,458.14c6.04,1.34,21.91,1.6,23.95-5.72,1.34-4.82-.5-8.04,2.4-14.22,1.87-3.98,11.32-12.01,11.36-12.86.15-2.87-2.77-1.29-3.99-1-13.42,3.27-34.21,18.77-33.73,33.79ZM6029.04,424.58c-10.23-8.31-32.07,20.04-27.08,25.83l19.66-12.97c3.6-3.95,8.88-6.66,7.42-12.87Z"/>
  <path d="M6931.87,113.45c-.42.29-2.27-1.29-2.64-1.02-.45.32-2.74,5.77-4.29,7.6-21.34,25.22-31.46,51.62-42.55,82.47-11.54-2.29-18.7-14.21-22.57-24.42-.63-.47-1.84.92-2.3,1.65-5.58,8.77-16.49,41.51-17.54,51.94-1.45,14.32,1.98,26.39,3.46,40.28-9.63,1.07-8.03-12.61-10.18-19.29-4.57-14.24-11.76-27.33-16.67-40.77-9.1-24.93-15.1-54.95-29.93-77.01-12.25-18.22-17.11-21.87-34.62-6.43-10.39,9.16-16.78,18.65-14.44,33.33,1.1,1.7,7.8,0,6.18,4.91-9.46,3.33-14.74-1.88-14.32-11.63.69-15.71,25.85-45.57,42.71-42.31,24.75,4.79,41.38,71.56,49.13,92.71l12.14,26.91c1.47-9.95,4.25-20.02,7.6-29.48,2.34-6.61,10.31-27.29,13.91-31.94,1.47-1.91,2.26-2.9,4.78-1.67,7.47,3.63,10.71,21.3,20.9,22.86,11.29-43.1,36.22-79.53,68.61-109.59,8.84-8.2,24.15-21.56,33.84-28.16,2.06-1.4,18.01-11.02,19.11-11.2,2.06-.33,4.29,1.85,3.84,3.78-22.47,16.47-46.17,33.54-65.31,53.94-2.11,2.25-7.91,11.88-8.85,12.54Z"/>
  <path d="M6046.9,188.38l-41.97,3.86c-17.49,24.05-40.26,67.41-66.69,81.98-2.59,1.43-3.15,2.91-6.83,1.08,22.89-20.76,42.17-44.89,59.1-70.75,18.97-28.99,40.14-67.22,50.22-100.36,4.33-14.21.94-35.75-17.59-24.82-15.69,9.25-28.99,28.36-36.74,44.45-5.48,3.71.08-12.14.72-13.42,5.47-11.03,30.57-38.75,43.17-39.57,15.57-1.02,22.66,20.17,17.5,32.59,2.36,1.34,1.57-1.96,2.67-2.19,2.45-.51,4.82.69,7.39-.29,15.83-6.04,32.77-27.77,44.44-39.57,2.09-2.11,6.07-5.91,8.84-6.81-10.21,22-28.89,36.47-48.26,50.19-2.2,1.56-6.77,2.25-7.21,2.71-4.7,4.81-8.06,69.11-3.51,70.3,15.19-5.18,24.77-18.05,36.14-28.41,1.69-1.54.63-4.25,4.76-2.19-3.26,8.15-9.3,14.61-15.67,20.44-4.52,4.14-23.03,15.06-24.06,16.82-5,8.57,3.78,34.86,10.4,42.28,11.73,13.14,21.56,8.47,35.3,2.03.48,6.83-13.05,11.41-19.01,11.45-24.99.19-34.83-31.3-33.09-51.8ZM6009.28,185.4c.83,1.58,33.23-.49,35.05-3.51-.55-23.09-.64-46.9,5.44-69.35-3.45-1.77-2.66-.32-4.14,1.05-7.53,6.94-17.21,37.14-23.33,48.67-2.13,4.01-14.65,20.05-13.02,23.14Z"/>
  <path d="M1607.02,485.99c-8.33.84-4.14-10.42-3.14-16.05,3.39-19.03,11.42-36.4,18.77-54.01-36.23,6.66-33.58-27.88-12.27-46.99,8.34-7.48,29.65-15.42,32.09-.02,3.24,20.5-22.03,59.41-28.58,81.08-3.43,11.33-5.51,24.21-6.86,35.99ZM1636.1,366.14c-1.58-.99-11.96-.6-14.34.14-3.92,1.22-3.82,5.23-5.98,7.01-5.07,4.17-8.59,3.75-12.77,12.21-11.97,24.21,13.1,34.86,22.53,22.29,1.07-1.43,12.25-31.38,12.53-33.46.4-2.97-.68-5.64-1.96-8.21Z"/>
</svg>