<?xml version="1.0" encoding="UTF-8"?>
<svg id="Layer_4" data-name="Layer 4" xmlns="http://www.w3.org/2000/svg" viewBox="0 0 342.54 249.55">
  <path d="M177.95,50.12c-2.52-1.85-12.65,6.01-11.83-1.08,16.02-4.65,14.41-16.33,24-27.44,4.79-5.54,11.45-13.82,19.09-7.71,8.29,11.87-16.05,26.33-24.77,30.47.27,30.37,33.42,7.04,49.64,8.64-17.14,8.87-48.6,25.07-56.14-2.88ZM188.11,36.01c2.15,2.29,20.21-15.58,17.97-17.99-7.93,3.4-17.03,8.18-17.97,17.99Z" style="fill: #0a0909;"/>
  <path d="M180.85,41.42l-12.52,12.46c-10.44,10.31-25,6.07-33.83,8.12-5.84,1.36-11.56,10.72-16.98,13.21-5.56,2.56-17.67,5.24-20.12-2.79-5-16.41,30.47-61.45,47.32-53.81,14.95,6.78,3.91,27.31-4.82,35.03l2.13,3.96c15.06.07,25.89-10.49,38.82-16.18ZM146.79,25.61c-5.56.41-16.79.77-21.11,3.95-1.09.8-15.87,18.73-17.14,20.84-4.06,6.72-6.64,13.39-5.5,21.42,7.06.83,13.49-1.8,19.03-6.01l-1.09-5.96c14.56-.12,12.02-18.23,17.76-26.79,1.9-2.84,7.22-3.31,8.06-7.44Z" style="fill: #0a0909;"/>
  <path d="M260.79,32.97c1.66-6.54,26.36-18.13,15.96-25.16-16.5-11.15-51.64,24.07-45.58,42,5.58,16.51,52.68-.82,63.68-4.98,3.64,2.7-42.55,24.96-61.33,14.7-31.19-17.03,30.79-75.38,46.9-55.44,12.4,15.34-9.59,17.74-11.53,29.92l-8.1-1.05Z" style="fill: #0a0909;"/>
  <g>
    <path d="M52.91,108.95l10.83-2.77c-5.17,5.36-12.3,5.78-17.02,11.96-6.3,8.25-25.25,53.32-30.59,56.14-.81.43-3.09.38-2.69-.87l28.64-55.35c-9.77,5.96-18.59,11.05-30.68,10.12,8.56-7.17,26.83-9.21,34.3-16.46,9.22-8.95,23.12-44.44,30.74-57.79,1.51-2.64,4.24-4.26,5.85-6.81,3.65-5.8,2.79-12.67,10.94-16.15,14.42,20.74-8.84,53.08-30.47,58.03l-9.84,19.95ZM94.14,36.37c-4.54-.95-3.19,1.06-4.67,3.41-3.09,4.88-24.27,41.64-22.21,43.76,18.81-7.66,29.65-27,26.88-47.17Z" style="fill: #0a0909;"/>
    <path d="M14.89,175.52c-.7,0-1.41-.16-1.9-.57-.54-.45-.73-1.14-.51-1.85l.06-.16,27-52.19c-8.15,4.88-16.81,9.29-28.24,8.42l-2.45-.19,1.88-1.58c4.3-3.61,10.93-5.94,17.34-8.19,6.5-2.29,13.22-4.65,16.9-8.22,5.91-5.73,13.84-22.75,20.85-37.77,3.63-7.79,7.07-15.15,9.72-19.79.86-1.5,2.05-2.67,3.2-3.8,1.01-.99,1.97-1.93,2.67-3.05,1.12-1.79,1.82-3.74,2.49-5.62,1.47-4.12,2.99-8.39,8.9-10.92l.75-.32.46.67c5.4,7.76,6.1,17.9,1.98,28.54-5.71,14.75-19.35,27.67-32.58,30.92l-8.67,17.58,12.13-3.1-2.45,2.54c-2.49,2.58-5.4,4.06-8.21,5.49-3.25,1.66-6.32,3.22-8.74,6.38-2.66,3.48-7.68,13.79-13,24.7-8.82,18.1-14.83,30.08-17.92,31.72-.41.21-1.04.36-1.7.36ZM14.52,173.5c.35.06.9.02,1.14-.1,2.75-1.45,10.69-17.74,17.06-30.83,5.36-11.01,10.43-21.4,13.21-25.04,2.69-3.52,6.11-5.26,9.42-6.95,1.44-.74,2.85-1.45,4.18-2.3l-8.47,2.17,11.01-22.32.46-.11c12.57-2.88,26.17-15.69,31.63-29.8,2.95-7.61,3.29-14.92,1.08-21.15,2.42,20.35-8.83,39.75-27.6,47.39l-.63.26-.47-.49c-.73-.75-1.83-1.89,9.02-22.02,5.45-10.12,11.49-20.49,13.07-22.98.35-.56.51-1.1.67-1.63.62-2.09,1.54-2.95,5.05-2.22l.25.05c-.49-1.11-1.07-2.18-1.73-3.21-4.48,2.2-5.68,5.55-7.05,9.4-.71,1.99-1.44,4.05-2.69,6.02-.83,1.31-1.91,2.38-2.96,3.41-1.1,1.08-2.14,2.1-2.86,3.36-2.61,4.57-6.03,11.89-9.64,19.65-7.08,15.17-15.1,32.37-21.27,38.36-3.99,3.88-10.92,6.31-17.63,8.67-5.16,1.82-10.47,3.68-14.43,6.18,9.92-.02,17.66-4.24,27.23-10.08l3.05-1.86-30.08,58.15ZM92.26,37.1c-.73,0-.83.34-1.05,1.08-.18.6-.4,1.34-.9,2.13-4.1,6.48-20.29,35.15-22.05,41.71,17.12-7.69,27.27-25.83,24.97-44.81-.42-.07-.73-.11-.98-.11Z" style="fill: #070707;"/>
  </g>
  <path d="M169.08,124.15c-2.52-1.85-12.65,6.01-11.83-1.08,16.02-4.65,14.41-16.33,24-27.44,4.79-5.54,11.45-13.82,19.09-7.71,8.29,11.87-16.05,26.33-24.77,30.47.27,30.37,33.42,7.04,49.64,8.64-17.14,8.87-48.6,25.07-56.14-2.88ZM179.25,110.03c2.15,2.29,20.21-15.58,17.97-17.99-7.93,3.4-17.03,8.18-17.97,17.99Z" style="fill: #0a0a0a;"/>
  <path d="M171.99,115.44l-12.52,12.46c-10.44,10.31-25,6.07-33.83,8.12-5.84,1.36-11.56,10.72-16.98,13.21-5.56,2.56-17.67,5.24-20.12-2.79-5-16.41,30.47-61.45,47.32-53.81,14.95,6.78,3.91,27.31-4.82,35.03l2.13,3.96c15.06.07,25.89-10.49,38.82-16.18ZM137.92,99.64c-5.56.41-16.79.77-21.11,3.95-1.09.8-15.87,18.73-17.14,20.84-4.06,6.72-6.64,13.39-5.5,21.42,7.06.83,13.49-1.8,19.03-6.01l-1.09-5.96c14.56-.12,12.02-18.23,17.76-26.79,1.9-2.84,7.22-3.31,8.06-7.44Z" style="fill: #0a0a0a;"/>
  <path d="M251.92,107c1.66-6.54,26.36-18.13,15.96-25.16-16.5-11.15-51.64,24.07-45.58,42,5.58,16.51,52.68-.82,63.68-4.98,3.64,2.7-42.55,24.96-61.33,14.7-31.19-17.03,30.79-75.38,46.9-55.44,12.4,15.34-9.59,17.74-11.53,29.92l-8.1-1.05Z" style="fill: #0a0a0a;"/>
  <g>
    <path d="M44.04,182.97l10.83-2.77c-5.17,5.36-12.3,5.78-17.02,11.96-6.3,8.25-25.25,53.32-30.59,56.14-.81.43-3.09.38-2.69-.87l28.64-55.35c-9.77,5.96-18.59,11.05-30.68,10.12,8.56-7.17,26.83-9.21,34.3-16.46,9.22-8.95,23.12-44.44,30.74-57.79,1.51-2.64,4.24-4.26,5.85-6.81,3.65-5.8,2.79-12.67,10.94-16.15,14.42,20.74-8.84,53.08-30.47,58.03l-9.84,19.95ZM85.27,110.39c-4.54-.95-3.19,1.06-4.67,3.41-3.09,4.88-24.27,41.64-22.21,43.76,18.81-7.66,29.65-27,26.88-47.17Z" style="fill: #0a0a0a;"/>
    <path d="M6.02,249.55c-.7,0-1.42-.16-1.9-.57-.54-.45-.73-1.14-.5-1.85l.06-.16,27-52.19c-8.15,4.87-16.81,9.29-28.24,8.42l-2.45-.19,1.88-1.58c4.3-3.61,10.93-5.94,17.34-8.19,6.5-2.29,13.22-4.65,16.9-8.22,5.91-5.73,13.85-22.76,20.85-37.77,3.63-7.79,7.07-15.15,9.72-19.79.86-1.5,2.05-2.67,3.2-3.8,1.01-.99,1.97-1.93,2.67-3.05,1.12-1.79,1.82-3.74,2.49-5.62,1.47-4.12,2.99-8.39,8.9-10.92l.75-.32.46.67c5.4,7.76,6.1,17.9,1.98,28.54-5.71,14.75-19.35,27.67-32.58,30.92l-8.67,17.57,12.13-3.1-2.45,2.54c-2.49,2.58-5.4,4.06-8.21,5.5-3.25,1.66-6.32,3.22-8.73,6.38-2.65,3.48-7.68,13.78-12.99,24.69-8.82,18.1-14.83,30.09-17.93,31.72-.41.21-1.04.36-1.7.36ZM5.65,247.52c.35.06.9.02,1.14-.1,2.75-1.45,10.69-17.74,17.07-30.83,5.36-11,10.43-21.4,13.2-25.03,2.69-3.52,6.11-5.26,9.42-6.95,1.45-.74,2.85-1.45,4.18-2.3l-8.47,2.17,11.01-22.32.46-.11c12.57-2.88,26.17-15.69,31.63-29.81,2.95-7.61,3.29-14.92,1.08-21.15,2.42,20.35-8.83,39.75-27.6,47.4l-.63.26-.47-.49c-.73-.75-1.83-1.89,9.02-22.02,5.46-10.12,11.5-20.49,13.07-22.97.35-.56.51-1.1.67-1.63.62-2.09,1.54-2.95,5.05-2.22l.25.05c-.49-1.11-1.07-2.18-1.73-3.21-4.48,2.2-5.68,5.55-7.05,9.4-.71,1.99-1.44,4.05-2.68,6.02-.83,1.31-1.91,2.38-2.96,3.41-1.1,1.08-2.14,2.1-2.86,3.36-2.61,4.57-6.03,11.89-9.64,19.64-7.08,15.17-15.1,32.37-21.27,38.36-3.99,3.88-10.93,6.32-17.63,8.67-5.16,1.82-10.47,3.68-14.43,6.18,9.92-.02,17.66-4.24,27.23-10.08l3.05-1.86-30.09,58.15ZM83.39,111.13c-.73,0-.83.34-1.05,1.08-.18.6-.4,1.34-.9,2.13-4.1,6.48-20.29,35.15-22.05,41.71,17.12-7.69,27.27-25.82,24.97-44.81-.42-.07-.73-.11-.98-.11Z" style="fill: #070707;"/>
  </g>
  <g>
    <path d="M308.41,48.79c-5.16,6.85,2.61,21.83,1.43,32.46-3.18,28.6-39.32,24.07-31.55-5.57,1.64-6.27,18.01-22,17.5-24.44-4-5.05-11.15-2.61-16.76-3.15l-7.22,8.11c-3.21-12.38,8.66-15.5,19.09-14.1,6.24.84,9.05,6.46,11.64,5.99,2.84-.52,29.3-25.67,39.26-23.86-4.92,9.89-27.87,17.25-33.39,24.57ZM290.89,91.09c1.37,1.67,2.45,3.48,3.9,5.08,10.23-10.09,12.97-26.05,4-37.92-11.6,8.91-13.97,16.1-10.95,30.55.31,1.5,2.4,1.51,3.05,2.3Z" style="fill: #aa0e15;"/>
    <path d="M292.17,100.97c-3.68,0-7.25-1.3-10.02-3.79-5.15-4.62-6.73-12.5-4.34-21.62.92-3.52,6.15-9.7,10.76-15.16,2.98-3.52,6.66-7.88,6.73-8.96-2.71-3.3-7.02-3.08-11.2-2.87-1.63.08-3.3.17-4.86.04l-7.68,8.62-.24-.91c-1.13-4.36-.53-7.9,1.79-10.51,3.28-3.7,9.96-5.28,17.86-4.21,3.65.49,6.11,2.51,8.09,4.13,1.39,1.14,2.49,2.04,3.39,1.87.72-.13,4.02-2.76,7.52-5.54,9.83-7.82,24.68-19.62,31.92-18.33l.65.12-.3.6c-2.85,5.73-11.27,10.44-19.41,15-6.01,3.37-11.69,6.55-14.03,9.65h0c-2.87,3.81-1.52,10.41-.08,17.39,1.04,5.07,2.12,10.31,1.61,14.82-1.02,9.19-5.56,15.97-12.45,18.6-1.88.72-3.81,1.07-5.72,1.07ZM287.25,47.45c3.39,0,6.63.56,8.93,3.47l.07.09.02.12c.27,1.29-2.2,4.28-6.95,9.9-4.32,5.11-9.7,11.47-10.56,14.77-2.29,8.75-.82,16.27,4.04,20.63,3.93,3.53,9.58,4.5,14.72,2.54,6.53-2.49,10.83-8.97,11.81-17.78.48-4.36-.58-9.52-1.6-14.51-1.48-7.21-2.88-14.02.27-18.19h0c2.46-3.27,8.23-6.5,14.34-9.92,7.34-4.11,15.61-8.75,18.66-13.94-7.1-.39-21.61,11.2-30.41,18.2-4.72,3.76-7.04,5.57-7.96,5.74-1.35.24-2.61-.78-4.2-2.08-1.88-1.54-4.22-3.46-7.59-3.91-5.84-.79-13.38-.18-16.97,3.88-1.92,2.17-2.52,5.08-1.78,8.67l6.75-7.58.25.02c1.56.15,3.21.07,4.97-.02,1.07-.05,2.14-.11,3.2-.11ZM294.78,96.89l-.35-.38c-.86-.94-1.6-1.96-2.31-2.95-.51-.71-1.04-1.45-1.61-2.14h0c-.17-.2-.59-.38-.99-.54-.85-.35-1.91-.78-2.16-1.97-3.1-14.86-.5-22.11,11.14-31.05l.4-.31.3.4c8.68,11.48,6.97,27.71-4.05,38.58l-.37.36ZM298.7,58.95c-10.91,8.5-13.33,15.53-10.37,29.74.13.62.7.9,1.56,1.25.55.22,1.06.44,1.39.83h0c.59.72,1.13,1.47,1.65,2.19.6.83,1.21,1.68,1.89,2.47,10.2-10.38,11.81-25.56,3.88-36.49Z" style="fill: #aa0e15;"/>
  </g>
  <g>
    <path d="M266.92,55.4l-15.25,3.75-23.77,2.22c-1.95,1.72-17.3,41.89-16.99,44.97,1.06,10.59,11.34,5.5,17.05,5.06,2.2-.17,7.46-1.44,6.95,1.97-47.78,18.19-22.95-30.27-11.99-51.95-10.69.49-22.33,3.84-32.91,4.07-4.15.09-10.67,1.87-9.1-4.09l44.04-4.98c5.91-12.39,17.07-24.01,19.99-37.03,3.48-.2,4.32-.91,4.07,3.06-.58,9.32-14.88,22.51-16.09,32.94h34Z" style="fill: #aa0e15;"/>
    <path d="M217.79,117.85c-4.03,0-7.03-1.08-8.97-3.23-8.52-9.46,5.06-36.42,13.27-52.66-4.84.29-9.94,1.14-14.88,1.96-5.72.96-11.64,1.94-17.19,2.07-.71.02-1.48.08-2.29.15-2.75.23-5.59.47-6.9-1.08-.72-.85-.85-2.09-.4-3.78l.09-.33.34-.04,43.76-4.95c2.28-4.73,5.36-9.42,8.33-13.95,4.78-7.29,9.73-14.83,11.5-22.73l.08-.37.38-.02c.48-.03.91-.07,1.29-.1,1.32-.11,2.19-.19,2.77.38.59.58.65,1.65.54,3.31-.3,4.77-3.96,10.34-7.84,16.22-3.63,5.51-7.38,11.2-8.18,16.19h37.55l-19.25,4.74-23.66,2.22c-2.36,2.86-17,41.67-16.73,44.44.25,2.5,1.02,4.19,2.36,5.17,2.43,1.77,6.44.92,9.98.17,1.51-.32,2.93-.62,4.17-.72.33-.03.73-.08,1.17-.13,2.05-.26,4.59-.58,5.77.62.49.5.67,1.19.54,2.06l-.04.29-.27.1c-7.03,2.68-12.8,4.01-17.3,4.01ZM223.76,60.88l-.67,1.33c-7.56,14.94-21.62,42.76-13.52,51.75,3.77,4.18,12.14,3.87,24.88-.94.02-.4-.08-.71-.3-.93-.83-.85-3.29-.53-4.92-.33-.46.06-.88.11-1.22.14-1.17.09-2.57.39-4.04.7-3.75.8-7.99,1.7-10.78-.34-1.58-1.16-2.49-3.08-2.77-5.87-.31-3.12,14.92-43.42,17.16-45.39l.12-.11.16-.02,23.77-2.22,11.18-2.75h-30.44l.06-.56c.62-5.36,4.58-11.37,8.41-17.18,3.8-5.77,7.4-11.23,7.68-15.74.06-1.01.09-2.21-.24-2.54-.25-.25-.98-.18-1.98-.1-.29.03-.6.05-.95.08-1.88,7.95-6.8,15.44-11.56,22.69-3.01,4.58-6.12,9.32-8.38,14.08l-.12.25-43.97,4.97c-.26,1.16-.17,2.02.28,2.55.97,1.16,3.67.93,6.05.73.83-.07,1.62-.14,2.36-.15,5.48-.12,11.36-1.1,17.04-2.05,5.26-.88,10.71-1.79,15.86-2.02l.85-.04Z" style="fill: #aa0e15;"/>
  </g>
</svg>